<?xml version="1.0" encoding="utf-8"?>
<svg
  width="100%"
  height="100%"
  viewBox="0 0 600 580"
  preserveAspectRatio="xMidYMid meet"
  xmlns="http://www.w3.org/2000/svg"
>
  <!-- Styles -->
  <style>
    .title-text {
      font-family: -apple-system, system-ui, BlinkMacSystemFont, Roboto, Arial, sans-serif;
      font-size: 20px;
      font-weight: bold;
      text-anchor: middle;
    }

    .gamma-text {
      font-family: -apple-system, system-ui, BlinkMacSystemFont, Roboto, Arial, sans-serif;
      font-size: 16px;
      text-anchor: middle;
    }

    .axis {
      stroke: #000;
      stroke-width: 1;
    }

    .axis-text {
      font-family: -apple-system, system-ui, BlinkMacSystemFont, Roboto, Arial, sans-serif;
      font-size: 16px;
    }

    .axis-marker-text {
      font-family: -apple-system, system-ui, BlinkMacSystemFont, Roboto, Arial, sans-serif;
      font-size: 14px;
    }

    .curve {
      fill: none;
      stroke-width: 2.5;
    }

    .curve-text {
      font-family: -apple-system, system-ui, BlinkMacSystemFont, Roboto, Arial, sans-serif;
      font-size: 16px;
      font-weight: bold;
    }
  </style>


  <title>Gamma Correction</title>

  <!-- Title text -->
  <text x="300" y="30" class="title-text">Gamma Correction</text>

  <!-- Gamma value text -->
  <text x="300" y="80" class="gamma-text">(gamma = 2.2)</text>

  <g transform="translate(75, 50)">
    <!-- Grid -->
    <g class="grid">
      <!-- Vertical grid lines -->
      <line x1="0" y1="0" x2="0" y2="450" />
      <line x1="45" y1="0" x2="45" y2="450" />
      <line x1="90" y1="0" x2="90" y2="450" />
      <line x1="135" y1="0" x2="135" y2="450" />
      <line x1="180" y1="0" x2="180" y2="450" />
      <line x1="225" y1="0" x2="225" y2="450" />
      <line x1="270" y1="0" x2="270" y2="450" />
      <line x1="315" y1="0" x2="315" y2="450" />
      <line x1="360" y1="0" x2="360" y2="450" />
      <line x1="405" y1="0" x2="405" y2="450" />
      <line x1="450" y1="0" x2="450" y2="450" />

      <!-- Horizontal grid lines -->
      <line x1="0" y1="0" x2="450" y2="0" />
      <line x1="0" y1="45" x2="450" y2="45" />
      <line x1="0" y1="90" x2="450" y2="90" />
      <line x1="0" y1="135" x2="450" y2="135" />
      <line x1="0" y1="180" x2="450" y2="180" />
      <line x1="0" y1="225" x2="450" y2="225" />
      <line x1="0" y1="270" x2="450" y2="270" />
      <line x1="0" y1="315" x2="450" y2="315" />
      <line x1="0" y1="360" x2="450" y2="360" />
      <line x1="0" y1="405" x2="450" y2="405" />
      <line x1="0" y1="450" x2="450" y2="450" />
    </g>

    <!-- Axes -->
    <line x1="0" y1="450" x2="450" y2="450" class="axis" />
    <line x1="0" y1="450" x2="0" y2="0" class="axis" />

    <!-- Perceived Brightness, Uncorrected (Red curve) -->
    <path
      d="M 0,450 L 0,450 L 4.5,394.521896725107 L 9,373.9755265468457 L 13.5,358.58974882587364 L 18,345.81978794064105 L 22.5,334.69842412529727 L 27,324.7358722900221 L 31.500000000000004,315.64399637421945 L 36,307.2365438161062 L 40.5,299.3850091032517 L 45,291.99637196031904 L 49.5,285.0007705249054 L 54,278.34417924252443 L 58.5,271.98381397393473 L 63.00000000000001,265.8851181283511 L 67.5,260.01971247548033 L 72,254.3639572363529 L 76.5,248.89791702861274 L 81,243.6045989110285 L 85.5,238.46938041022102 L 90,233.4795727264711 L 94.5,228.6240820575688 L 99,223.8931434107425 L 103.5,219.27810882129097 L 108,214.77127699205232 L 112.5,210.3657548760084 L 117,206.05534418306075 L 121.50000000000001,201.83444754335687 L 126.00000000000001,197.6979903255567 L 130.5,193.64135503605536 L 135,189.66032591336227 L 139.5,185.75104184826603 L 144,181.909956152088 L 148.5,178.13380199532781 L 153,174.41956257089146 L 157.5,170.7644452168836 L 162,167.16585887602304 L 166.5,163.62139438123614 L 171,160.12880714668853 L 175.5,156.68600191551843 L 180,153.29101927369777 L 184.5,149.9420236867001 L 189,146.63729285426808 L 193.5,143.37520821028534 L 198,140.15424642093922 L 202.5,136.97297175607918 L 207,133.83002922676684 L 211.5,130.7241383971612 L 216,127.65408779160174 L 220.5,124.61872982849235 L 225,121.61697622167463 L 229.5,118.64779379770584 L 234,115.71020068404562 L 238.5,112.80326282878906 L 243.00000000000003,109.92609081742563 L 247.50000000000003,107.07783695626352 L 252.00000000000003,104.25769259576037 L 256.5,101.46488567011 L 261,98.69867843214189 L 265.5,95.95836536494244 L 270,93.24327125366 L 274.5,90.55274940275103 L 279,87.88617998550455 L 283.5,85.2429685140591 L 288,82.62254441935261 L 292.5,80.02435973151688 L 297,77.44788785218134 L 301.5,74.8926224109943 L 306,72.35807619941869 L 310.5,69.84378017552325 L 315,67.3492825340864 L 319.5,64.87414783685642 L 324,62.4179561982877 L 328.5,59.98030252249532 L 333,57.560795787550944 L 337.5,55.15905837358514 L 342,52.77472543146769 L 346.5,50.407444289116825 L 351,48.05687389273419 L 355.5,45.72268428049307 L 360,43.404556086407524 L 364.5,41.10218007229918 L 369,38.81525668594196 L 373.5,36.543495643621554 L 378,34.286615535483804 L 382.5,32.044343452170835 L 387,29.816414631361567 L 391.5,27.60257212293692 L 396,25.40256647158526 L 400.5,23.216155415753803 L 405,21.043103601929033 L 409.5,18.883182313305383 L 414,16.73616921196725 L 418.5,14.601848093772901 L 423,12.480008655183951 L 427.5,10.370446271338892 L 432,8.27296178471488 L 436.5,6.187361303769194 L 441,4.113456010989864 L 445.5,2.0510619798259313 L 450,0"
      class="curve" stroke="#cc0000" />

    <!-- Perceived Brightness, Corrected (Blue curve) -->
    <line x1="0" y1="450" x2="450" y2="0" class="curve" stroke="#0066ff" />

    <!-- Gamma-Corrected Duty Cycle (DC) (Green curve) -->
    <path
      d="M 0,450 L 0,450 L 4.5,449.9820851773251 L 9,449.9176850906531 L 13.5,449.7991465600453 L 18,449.62177999616586 L 22.5,449.3820596943903 L 27,449.07711993571405 L 31.500000000000004,448.70452748958064 L 36,448.262157215075 L 40.5,447.7481158996818 L 45,447.16069194983913 L 49.5,446.49832027868206 L 54,445.7595567531808 L 58.5,444.94305897485486 L 63.00000000000001,444.04757143334973 L 67.5,443.07191378219886 L 72,442.01497140685274 L 76.5,440.87568771579157 L 81,439.6530577532819 L 85.5,438.34612284374873 L 90,436.9539660538015 L 94.5,435.4757083111432 L 99,433.91050505758227 L 103.5,432.25754334101214 L 108,430.5160392716819 L 112.5,428.6852357834475 L 117,426.764400652395 L 121.50000000000001,424.7528247342481 L 126.00000000000001,422.6498203890058 L 130.5,420.454720066796 L 135,418.1668750333368 L 139.5,415.7856542169324 L 144,413.3104431617897 L 148.5,410.74064307476965 L 153,408.07566995460223 L 157.5,405.31495379417044 L 162,402.4579378477826 L 166.5,399.5040779564499 L 171,396.45284192510667 L 175.5,393.30370894649116 L 180,390.0561690670651 L 184.5,386.709722690914 L 189,383.2638801180524 L 193.5,379.7181611139744 L 198,376.0720945076466 L 202.5,372.32521781545137 L 207,368.4770768888579 L 211.5,364.5272255838339 L 216,360.4752254502167 L 220.5,356.32064543944153 L 225,352.06306162918605 L 229.5,347.7020569636289 L 234,343.23722100814393 L 238.5,338.6681497173627 L 243.00000000000003,333.99444521563584 L 247.50000000000003,329.2157155890088 L 252.00000000000003,324.3315746879101 L 256.5,319.3416419398138 L 261,314.2455421712067 L 265.5,309.0429054382421 L 270,303.7333668655157 L 274.5,298.31656649244326 L 279,292.7921491267621 L 283.5,287.15976420471526 L 288,281.41906565751043 L 292.5,275.56971178367905 L 297,269.6113651269858 L 301.5,263.5436923595664 L 306,257.36636416999534 L 310.5,251.0790551560033 L 315,244.68144372158832 L 319.5,238.17321197827889 L 324,231.55404565032427 L 328.5,224.8236339836042 L 333,217.98166965806183 L 337.5,211.02784870347793 L 342,203.9618704184152 L 346.5,196.78343729217337 L 351,189.49225492960505 L 355.5,182.088031978652 L 360,174.57048006046932 L 364.5,166.9393137020151 L 369,159.19425027098708 L 373.5,151.3350099129982 L 378,143.36131549088748 L 382.5,135.27289252606823 L 387,127.06946914182294 L 391.5,118.7507760084568 L 396,110.31654629022961 L 400.5,101.76651559398789 L 405,93.10042191942398 L 409.5,84.31800561089341 L 414,75.41900931072502 L 418.5,66.40317791396103 L 423,57.27025852446951 L 427.5,48.020000412371814 L 432,38.65215497273414 L 436.5,29.166475685470232 L 441,19.562718076409965 L 445.5,9.840639679486458 L 450,0"
      class="curve" stroke="#00cc66" />

    <!-- texts -->
    <text x="225" y="510" class="axis-text" text-anchor="middle">Desired Brightness</text>

    <!-- X-axis texts -->
    <text x="0" y="470" class="axis-marker-text" text-anchor="middle">0.00</text>
    <text x="45" y="470" class="axis-marker-text" text-anchor="middle">0.10</text>
    <text x="90" y="470" class="axis-marker-text" text-anchor="middle">0.20</text>
    <text x="135" y="470" class="axis-marker-text" text-anchor="middle">0.30</text>
    <text x="180" y="470" class="axis-marker-text" text-anchor="middle">0.40</text>
    <text x="225" y="470" class="axis-marker-text" text-anchor="middle">0.50</text>
    <text x="270" y="470" class="axis-marker-text" text-anchor="middle">0.60</text>
    <text x="315" y="470" class="axis-marker-text" text-anchor="middle">0.70</text>
    <text x="360" y="470" class="axis-marker-text" text-anchor="middle">0.80</text>
    <text x="405" y="470" class="axis-marker-text" text-anchor="middle">0.90</text>
    <text x="450" y="470" class="axis-marker-text" text-anchor="middle">1.00</text>

    <!-- Y-axis texts -->
    <text x="-15" y="450" class="axis-marker-text" text-anchor="end">0.00</text>
    <text x="-15" y="405" class="axis-marker-text" text-anchor="end">0.10</text>
    <text x="-15" y="360" class="axis-marker-text" text-anchor="end">0.20</text>
    <text x="-15" y="315" class="axis-marker-text" text-anchor="end">0.30</text>
    <text x="-15" y="270" class="axis-marker-text" text-anchor="end">0.40</text>
    <text x="-15" y="225" class="axis-marker-text" text-anchor="end">0.50</text>
    <text x="-15" y="180" class="axis-marker-text" text-anchor="end">0.60</text>
    <text x="-15" y="135" class="axis-marker-text" text-anchor="end">0.70</text>
    <text x="-15" y="90" class="axis-marker-text" text-anchor="end">0.80</text>
    <text x="-15" y="45" class="axis-marker-text" text-anchor="end">0.90</text>
    <text x="-15" y="0" class="axis-marker-text" text-anchor="end">1.00</text>

    <!-- Curve texts -->
    <text x="40" y="265" class="curve-text" transform="rotate(-45, 40, 265)">Perceived Brightness, Uncorrected</text>
    <text x="110" y="325" class="curve-text" transform="rotate(-45, 110, 325)">Perceived Brightness, Corrected</text>
    <text x="201" y="403" class="curve-text" transform="rotate(-45, 201, 403)">Gamma-Corrected Duty Cycle</text>
  </g>
</svg>
