<?xml version="1.0" encoding="UTF-8" standalone="no"?>
<!-- Created with Inkscape (http://www.inkscape.org/) -->

<svg
   xmlns:dc="http://purl.org/dc/elements/1.1/"
   xmlns:cc="http://creativecommons.org/ns#"
   xmlns:rdf="http://www.w3.org/1999/02/22-rdf-syntax-ns#"
   xmlns:svg="http://www.w3.org/2000/svg"
   xmlns="http://www.w3.org/2000/svg"
   xmlns:sodipodi="http://sodipodi.sourceforge.net/DTD/sodipodi-0.dtd"
   xmlns:inkscape="http://www.inkscape.org/namespaces/inkscape"
   width="500"
   height="500"
   id="svg2"
   version="1.1"
   inkscape:version="0.48.5 r10040"
   sodipodi:docname="super-sub.svg">
  <defs
     id="defs4" />
  <sodipodi:namedview
     id="base"
     pagecolor="#ffffff"
     bordercolor="#666666"
     borderopacity="1.0"
     inkscape:pageopacity="0"
     inkscape:pageshadow="2"
     inkscape:zoom="1"
     inkscape:cx="246.45065"
     inkscape:cy="288.95524"
     inkscape:document-units="px"
     inkscape:current-layer="g4089"
     showgrid="false"
     inkscape:window-width="1203"
     inkscape:window-height="700"
     inkscape:window-x="1716"
     inkscape:window-y="41"
     inkscape:window-maximized="0"
     showborder="true"
     inkscape:showpageshadow="false" />
  <metadata
     id="metadata7">
    <rdf:RDF>
      <cc:Work
         rdf:about="">
        <dc:format>image/svg+xml</dc:format>
        <dc:type
           rdf:resource="http://purl.org/dc/dcmitype/StillImage" />
        <dc:title></dc:title>
      </cc:Work>
    </rdf:RDF>
  </metadata>
  <g
     inkscape:label="Layer 1"
     inkscape:groupmode="layer"
     id="layer1"
     transform="translate(0,-552.36218)">
    <g
       id="g4089">
      <path
         transform="matrix(1.0147992,0,0,1.1881188,-91.479915,497.01564)"
         style="fill:none;stroke:#000000;stroke-width:7.28567839;stroke-linecap:butt;stroke-linejoin:round;stroke-miterlimit:3.79999995;stroke-opacity:1;marker-start:none"
         d="M 573,257 C 573,368.56152 467.11534,459 336.5,459 205.88466,459 100,368.56152 100,257 100,145.43848 205.88466,55 336.5,55 c 130.58088,0 236.45125,90.39254 236.49998,201.92461"
         id="path2985" />
      <path
         transform="matrix(0.45749142,0,0,0.53562733,-13.945863,727.70596)"
         style="fill:none;stroke:#000000;stroke-width:7.28567839;stroke-linecap:butt;stroke-linejoin:round;stroke-miterlimit:3.79999995;stroke-opacity:1;marker-start:none"
         d="M 573,257 C 573,368.56152 467.11534,459 336.5,459 205.88466,459 100,368.56152 100,257 100,145.43848 205.88466,55 336.5,55 c 130.58088,0 236.45125,90.39254 236.49998,201.92461"
         id="path2985-0" />
      <path
         transform="matrix(0.45749142,0,0,0.53562733,206.05414,727.70596)"
         style="fill:none;stroke:#000000;stroke-width:7.28567839;stroke-linecap:butt;stroke-linejoin:round;stroke-miterlimit:3.79999995;stroke-opacity:1;marker-start:none"
         d="M 573,257 C 573,368.56152 467.11534,459 336.5,459 205.88466,459 100,368.56152 100,257 100,145.43848 205.88466,55 336.5,55 c 130.58088,0 236.45125,90.39254 236.49998,201.92461"
         id="path2985-0-4" />
      <path
         transform="matrix(0.45749142,0,0,0.53562733,96.054137,537.70596)"
         style="fill:none;stroke:#000000;stroke-width:7.28567839;stroke-linecap:butt;stroke-linejoin:round;stroke-miterlimit:3.79999995;stroke-opacity:1;marker-start:none"
         d="M 573,257 C 573,368.56152 467.11534,459 336.5,459 205.88466,459 100,368.56152 100,257 100,145.43848 205.88466,55 336.5,55 c 130.58088,0 236.45125,90.39254 236.49998,201.92461"
         id="path2985-0-4-5" />
      <g
         transform="translate(16.189453,633.36218)"
         style="font-size:40px;font-style:normal;font-weight:normal;line-height:125%;letter-spacing:0px;word-spacing:0px;fill:#000000;fill-opacity:1;stroke:none;font-family:Sans"
         id="flowRoot4033">
        <path
           d="m 215.71484,111.6395 0,3.39844 c -1.01564,-0.52082 -2.07032,-0.91144 -3.16406,-1.17188 -1.09376,-0.2604 -2.22657,-0.39061 -3.39844,-0.39062 -1.78386,10e-6 -3.125,0.27345 -4.02343,0.82031 -0.88543,0.54689 -1.32813,1.3672 -1.32813,2.46094 0,0.83334 0.31901,1.4909 0.95703,1.97265 0.63802,0.46877 1.92057,0.91798 3.84766,1.34766 l 1.23047,0.27344 c 2.55207,0.54688 4.36196,1.32162 5.42968,2.32421 1.08072,0.9896 1.62108,2.37631 1.6211,4.16016 -2e-5,2.03125 -0.80731,3.63933 -2.42188,4.82422 -1.60157,1.18489 -3.8086,1.77734 -6.62109,1.77734 -1.17188,0 -2.39584,-0.11719 -3.67188,-0.35156 -1.26302,-0.22135 -2.59765,-0.5599 -4.0039,-1.01562 l 0,-3.71094 c 1.32812,0.69011 2.63671,1.21094 3.92578,1.5625 1.28906,0.33854 2.5651,0.50781 3.82812,0.50781 1.6927,0 2.99478,-0.28646 3.90625,-0.85937 0.91145,-0.58594 1.36718,-1.40625 1.36719,-2.46094 -1e-5,-0.97656 -0.33204,-1.72526 -0.99609,-2.2461 -0.65106,-0.52082 -2.08986,-1.02212 -4.31641,-1.5039 l -1.25,-0.29297 c -2.22657,-0.46874 -3.83464,-1.18489 -4.82422,-2.14844 -0.98958,-0.97655 -1.48437,-2.31118 -1.48437,-4.0039 0,-2.05728 0.72916,-3.64582 2.1875,-4.76563 1.45833,-1.11977 3.52864,-1.67966 6.21094,-1.67969 1.32811,3e-5 2.57811,0.0977 3.75,0.29297 1.17186,0.19534 2.25258,0.4883 3.24218,0.87891"
           style="font-variant:normal;font-stretch:normal;font-family:Sans;-inkscape-font-specification:Sans"
           id="path4324"
           inkscape:connector-curvature="0" />
        <path
           d="m 222.25781,124.23715 0,-13.24218 3.59375,0 0,13.10547 c 0,2.07031 0.40364,3.6263 1.21094,4.66796 0.80728,1.02865 2.01822,1.54298 3.63281,1.54297 1.94009,1e-5 3.47004,-0.61848 4.58985,-1.85547 1.13279,-1.23697 1.6992,-2.92317 1.69921,-5.05859 l 0,-12.40234 3.59375,0 0,21.875 -3.59375,0 0,-3.35938 c -0.87241,1.32813 -1.88803,2.31771 -3.04687,2.96875 -1.14585,0.63802 -2.48048,0.95703 -4.00391,0.95703 -2.51303,0 -4.42058,-0.78125 -5.72265,-2.34375 -1.30209,-1.56249 -1.95313,-3.84765 -1.95313,-6.85547 m 9.04297,-13.76953 0,0"
           style="font-variant:normal;font-stretch:normal;font-family:Sans;-inkscape-font-specification:Sans"
           id="path4326"
           inkscape:connector-curvature="0" />
        <path
           d="m 263.72266,121.952 c -2e-5,-2.64322 -0.5469,-4.71353 -1.64063,-6.21094 -1.08074,-1.5104 -2.57163,-2.26561 -4.47266,-2.26562 -1.90105,10e-6 -3.39844,0.75522 -4.49218,2.26562 -1.08074,1.49741 -1.6211,3.56772 -1.6211,6.21094 0,2.64324 0.54036,4.72006 1.6211,6.23047 1.09374,1.4974 2.59113,2.24609 4.49218,2.24609 1.90103,0 3.39192,-0.74869 4.47266,-2.24609 1.09373,-1.51041 1.64061,-3.58723 1.64063,-6.23047 m -12.22657,-7.63672 c 0.7552,-1.30206 1.70572,-2.26561 2.85157,-2.89063 1.15884,-0.63799 2.53905,-0.957 4.14062,-0.95703 2.65623,3e-5 4.81118,1.05471 6.46484,3.16407 1.66665,2.10939 2.49998,4.88282 2.5,8.32031 -2e-5,3.43751 -0.83335,6.21094 -2.5,8.32031 -1.65366,2.10938 -3.80861,3.16406 -6.46484,3.16406 -1.60157,0 -2.98178,-0.3125 -4.14062,-0.9375 -1.14585,-0.63802 -2.09637,-1.60807 -2.85157,-2.91015 l 0,3.28125 -3.61328,0 0,-30.39063 3.61328,0 0,11.83594"
           style="font-variant:normal;font-stretch:normal;font-family:Sans;-inkscape-font-specification:Sans"
           id="path4328"
           inkscape:connector-curvature="0" />
      </g>
      <g
         transform="translate(-93.810547,668.40432)"
         style="font-size:40px;font-style:normal;font-weight:normal;line-height:125%;letter-spacing:0px;word-spacing:0px;fill:#000000;fill-opacity:1;stroke:none;font-family:Sans"
         id="flowRoot4033-6">
        <path
           d="m 215.71484,111.6395 0,3.39844 c -1.01564,-0.52082 -2.07032,-0.91144 -3.16406,-1.17188 -1.09376,-0.2604 -2.22657,-0.39061 -3.39844,-0.39062 -1.78386,10e-6 -3.125,0.27345 -4.02343,0.82031 -0.88543,0.54689 -1.32813,1.3672 -1.32813,2.46094 0,0.83334 0.31901,1.4909 0.95703,1.97265 0.63802,0.46877 1.92057,0.91798 3.84766,1.34766 l 1.23047,0.27344 c 2.55207,0.54688 4.36196,1.32162 5.42968,2.32421 1.08072,0.9896 1.62108,2.37631 1.6211,4.16016 -2e-5,2.03125 -0.80731,3.63933 -2.42188,4.82422 -1.60157,1.18489 -3.8086,1.77734 -6.62109,1.77734 -1.17188,0 -2.39584,-0.11719 -3.67188,-0.35156 -1.26302,-0.22135 -2.59765,-0.5599 -4.0039,-1.01562 l 0,-3.71094 c 1.32812,0.69011 2.63671,1.21094 3.92578,1.5625 1.28906,0.33854 2.5651,0.50781 3.82812,0.50781 1.6927,0 2.99478,-0.28646 3.90625,-0.85937 0.91145,-0.58594 1.36718,-1.40625 1.36719,-2.46094 -1e-5,-0.97656 -0.33204,-1.72526 -0.99609,-2.2461 -0.65106,-0.52082 -2.08986,-1.02212 -4.31641,-1.5039 l -1.25,-0.29297 c -2.22657,-0.46874 -3.83464,-1.18489 -4.82422,-2.14844 -0.98958,-0.97655 -1.48437,-2.31118 -1.48437,-4.0039 0,-2.05728 0.72916,-3.64582 2.1875,-4.76563 1.45833,-1.11977 3.52864,-1.67966 6.21094,-1.67969 1.32811,3e-5 2.57811,0.0977 3.75,0.29297 1.17186,0.19534 2.25258,0.4883 3.24218,0.87891"
           style="font-variant:normal;font-stretch:normal;font-family:Sans;-inkscape-font-specification:Sans"
           id="path4317"
           inkscape:connector-curvature="0" />
        <path
           d="m 222.25781,124.23715 0,-13.24218 3.59375,0 0,13.10547 c 0,2.07031 0.40364,3.6263 1.21094,4.66796 0.80728,1.02865 2.01822,1.54298 3.63281,1.54297 1.94009,1e-5 3.47004,-0.61848 4.58985,-1.85547 1.13279,-1.23697 1.6992,-2.92317 1.69921,-5.05859 l 0,-12.40234 3.59375,0 0,21.875 -3.59375,0 0,-3.35938 c -0.87241,1.32813 -1.88803,2.31771 -3.04687,2.96875 -1.14585,0.63802 -2.48048,0.95703 -4.00391,0.95703 -2.51303,0 -4.42058,-0.78125 -5.72265,-2.34375 -1.30209,-1.56249 -1.95313,-3.84765 -1.95313,-6.85547 m 9.04297,-13.76953 0,0"
           style="font-variant:normal;font-stretch:normal;font-family:Sans;-inkscape-font-specification:Sans"
           id="path4319"
           inkscape:connector-curvature="0" />
        <path
           d="m 263.72266,121.952 c -2e-5,-2.64322 -0.5469,-4.71353 -1.64063,-6.21094 -1.08074,-1.5104 -2.57163,-2.26561 -4.47266,-2.26562 -1.90105,10e-6 -3.39844,0.75522 -4.49218,2.26562 -1.08074,1.49741 -1.6211,3.56772 -1.6211,6.21094 0,2.64324 0.54036,4.72006 1.6211,6.23047 1.09374,1.4974 2.59113,2.24609 4.49218,2.24609 1.90103,0 3.39192,-0.74869 4.47266,-2.24609 1.09373,-1.51041 1.64061,-3.58723 1.64063,-6.23047 m -12.22657,-7.63672 c 0.7552,-1.30206 1.70572,-2.26561 2.85157,-2.89063 1.15884,-0.63799 2.53905,-0.957 4.14062,-0.95703 2.65623,3e-5 4.81118,1.05471 6.46484,3.16407 1.66665,2.10939 2.49998,4.88282 2.5,8.32031 -2e-5,3.43751 -0.83335,6.21094 -2.5,8.32031 -1.65366,2.10938 -3.80861,3.16406 -6.46484,3.16406 -1.60157,0 -2.98178,-0.3125 -4.14062,-0.9375 -1.14585,-0.63802 -2.09637,-1.60807 -2.85157,-2.91015 l 0,3.28125 -3.61328,0 0,-30.39063 3.61328,0 0,11.83594"
           style="font-variant:normal;font-stretch:normal;font-family:Sans;-inkscape-font-specification:Sans"
           id="path4321"
           inkscape:connector-curvature="0" />
      </g>
      <g
         transform="translate(126.18946,668.40432)"
         style="font-size:40px;font-style:normal;font-weight:normal;line-height:125%;letter-spacing:0px;word-spacing:0px;fill:#000000;fill-opacity:1;stroke:none;font-family:Sans"
         id="flowRoot4033-63">
        <path
           d="m 215.71484,111.6395 0,3.39844 c -1.01564,-0.52082 -2.07032,-0.91144 -3.16406,-1.17188 -1.09376,-0.2604 -2.22657,-0.39061 -3.39844,-0.39062 -1.78386,10e-6 -3.125,0.27345 -4.02343,0.82031 -0.88543,0.54689 -1.32813,1.3672 -1.32813,2.46094 0,0.83334 0.31901,1.4909 0.95703,1.97265 0.63802,0.46877 1.92057,0.91798 3.84766,1.34766 l 1.23047,0.27344 c 2.55207,0.54688 4.36196,1.32162 5.42968,2.32421 1.08072,0.9896 1.62108,2.37631 1.6211,4.16016 -2e-5,2.03125 -0.80731,3.63933 -2.42188,4.82422 -1.60157,1.18489 -3.8086,1.77734 -6.62109,1.77734 -1.17188,0 -2.39584,-0.11719 -3.67188,-0.35156 -1.26302,-0.22135 -2.59765,-0.5599 -4.0039,-1.01562 l 0,-3.71094 c 1.32812,0.69011 2.63671,1.21094 3.92578,1.5625 1.28906,0.33854 2.5651,0.50781 3.82812,0.50781 1.6927,0 2.99478,-0.28646 3.90625,-0.85937 0.91145,-0.58594 1.36718,-1.40625 1.36719,-2.46094 -1e-5,-0.97656 -0.33204,-1.72526 -0.99609,-2.2461 -0.65106,-0.52082 -2.08986,-1.02212 -4.31641,-1.5039 l -1.25,-0.29297 c -2.22657,-0.46874 -3.83464,-1.18489 -4.82422,-2.14844 -0.98958,-0.97655 -1.48437,-2.31118 -1.48437,-4.0039 0,-2.05728 0.72916,-3.64582 2.1875,-4.76563 1.45833,-1.11977 3.52864,-1.67966 6.21094,-1.67969 1.32811,3e-5 2.57811,0.0977 3.75,0.29297 1.17186,0.19534 2.25258,0.4883 3.24218,0.87891"
           style="font-variant:normal;font-stretch:normal;font-family:Sans;-inkscape-font-specification:Sans"
           id="path4310"
           inkscape:connector-curvature="0" />
        <path
           d="m 222.25781,124.23715 0,-13.24218 3.59375,0 0,13.10547 c 0,2.07031 0.40364,3.6263 1.21094,4.66796 0.80728,1.02865 2.01822,1.54298 3.63281,1.54297 1.94009,1e-5 3.47004,-0.61848 4.58985,-1.85547 1.13279,-1.23697 1.6992,-2.92317 1.69921,-5.05859 l 0,-12.40234 3.59375,0 0,21.875 -3.59375,0 0,-3.35938 c -0.87241,1.32813 -1.88803,2.31771 -3.04687,2.96875 -1.14585,0.63802 -2.48048,0.95703 -4.00391,0.95703 -2.51303,0 -4.42058,-0.78125 -5.72265,-2.34375 -1.30209,-1.56249 -1.95313,-3.84765 -1.95313,-6.85547 m 9.04297,-13.76953 0,0"
           style="font-variant:normal;font-stretch:normal;font-family:Sans;-inkscape-font-specification:Sans"
           id="path4312"
           inkscape:connector-curvature="0" />
        <path
           d="m 263.72266,121.952 c -2e-5,-2.64322 -0.5469,-4.71353 -1.64063,-6.21094 -1.08074,-1.5104 -2.57163,-2.26561 -4.47266,-2.26562 -1.90105,10e-6 -3.39844,0.75522 -4.49218,2.26562 -1.08074,1.49741 -1.6211,3.56772 -1.6211,6.21094 0,2.64324 0.54036,4.72006 1.6211,6.23047 1.09374,1.4974 2.59113,2.24609 4.49218,2.24609 1.90103,0 3.39192,-0.74869 4.47266,-2.24609 1.09373,-1.51041 1.64061,-3.58723 1.64063,-6.23047 m -12.22657,-7.63672 c 0.7552,-1.30206 1.70572,-2.26561 2.85157,-2.89063 1.15884,-0.63799 2.53905,-0.957 4.14062,-0.95703 2.65623,3e-5 4.81118,1.05471 6.46484,3.16407 1.66665,2.10939 2.49998,4.88282 2.5,8.32031 -2e-5,3.43751 -0.83335,6.21094 -2.5,8.32031 -1.65366,2.10938 -3.80861,3.16406 -6.46484,3.16406 -1.60157,0 -2.98178,-0.3125 -4.14062,-0.9375 -1.14585,-0.63802 -2.09637,-1.60807 -2.85157,-2.91015 l 0,3.28125 -3.61328,0 0,-30.39063 3.61328,0 0,11.83594"
           style="font-variant:normal;font-stretch:normal;font-family:Sans;-inkscape-font-specification:Sans"
           id="path4314"
           inkscape:connector-curvature="0" />
      </g>
      <g
         id="g4698">
        <path
           id="path2985-0-42"
           d="m 138.09051,912.73732 c 0,19.84775 -16.08977,35.93755 -35.93753,35.93755 -19.84775,0 -35.93754,-16.0898 -35.93754,-35.93755 0,-19.84775 16.08979,-35.93754 35.93754,-35.93754 19.84252,0 35.93014,16.08161 35.93753,35.92413"
           style="fill:none;stroke:#000000;stroke-width:1.19791794;stroke-linecap:butt;stroke-linejoin:round;stroke-miterlimit:3.79999995;stroke-opacity:1;marker-start:none"
           inkscape:connector-curvature="0" />
        <path
           id="path2985-0-4-6"
           d="m 211.16351,912.73732 c 0,19.84775 -16.08978,35.93755 -35.93754,35.93755 -19.84776,0 -35.93753,-16.0898 -35.93753,-35.93755 0,-19.84775 16.08977,-35.93754 35.93753,-35.93754 19.84252,0 35.93013,16.08161 35.93753,35.92413"
           style="fill:none;stroke:#000000;stroke-width:1.19791794;stroke-linecap:butt;stroke-linejoin:round;stroke-miterlimit:3.79999995;stroke-opacity:1;marker-start:none"
           inkscape:connector-curvature="0" />
        <path
           id="path2985-0-4-5-4"
           d="m 174.62701,849.62881 c 0,19.84776 -16.08978,35.93755 -35.93754,35.93755 -19.84774,0 -35.93753,-16.08979 -35.93753,-35.93755 0,-19.84773 16.08979,-35.93753 35.93753,-35.93753 19.84252,0 35.93014,16.08161 35.93754,35.92412"
           style="fill:none;stroke:#000000;stroke-width:1.19791794;stroke-linecap:butt;stroke-linejoin:round;stroke-miterlimit:3.79999995;stroke-opacity:1;marker-start:none"
           inkscape:connector-curvature="0" />
        <g
           id="flowRoot4033-2"
           style="font-size:40px;font-style:normal;font-weight:normal;line-height:125%;letter-spacing:0px;word-spacing:0px;fill:#000000;fill-opacity:1;stroke:none;font-family:Sans"
           transform="matrix(0.33214997,0,0,0.33214997,61.02931,831.69272)">
          <path
             id="path4324-1"
             style="font-variant:normal;font-stretch:normal;font-family:Sans;-inkscape-font-specification:Sans"
             d="m 215.71484,111.6395 0,3.39844 c -1.01564,-0.52082 -2.07032,-0.91144 -3.16406,-1.17188 -1.09376,-0.2604 -2.22657,-0.39061 -3.39844,-0.39062 -1.78386,10e-6 -3.125,0.27345 -4.02343,0.82031 -0.88543,0.54689 -1.32813,1.3672 -1.32813,2.46094 0,0.83334 0.31901,1.4909 0.95703,1.97265 0.63802,0.46877 1.92057,0.91798 3.84766,1.34766 l 1.23047,0.27344 c 2.55207,0.54688 4.36196,1.32162 5.42968,2.32421 1.08072,0.9896 1.62108,2.37631 1.6211,4.16016 -2e-5,2.03125 -0.80731,3.63933 -2.42188,4.82422 -1.60157,1.18489 -3.8086,1.77734 -6.62109,1.77734 -1.17188,0 -2.39584,-0.11719 -3.67188,-0.35156 -1.26302,-0.22135 -2.59765,-0.5599 -4.0039,-1.01562 l 0,-3.71094 c 1.32812,0.69011 2.63671,1.21094 3.92578,1.5625 1.28906,0.33854 2.5651,0.50781 3.82812,0.50781 1.6927,0 2.99478,-0.28646 3.90625,-0.85937 0.91145,-0.58594 1.36718,-1.40625 1.36719,-2.46094 -1e-5,-0.97656 -0.33204,-1.72526 -0.99609,-2.2461 -0.65106,-0.52082 -2.08986,-1.02212 -4.31641,-1.5039 l -1.25,-0.29297 c -2.22657,-0.46874 -3.83464,-1.18489 -4.82422,-2.14844 -0.98958,-0.97655 -1.48437,-2.31118 -1.48437,-4.0039 0,-2.05728 0.72916,-3.64582 2.1875,-4.76563 1.45833,-1.11977 3.52864,-1.67966 6.21094,-1.67969 1.32811,3e-5 2.57811,0.0977 3.75,0.29297 1.17186,0.19534 2.25258,0.4883 3.24218,0.87891"
             inkscape:connector-curvature="0" />
          <path
             id="path4326-0"
             style="font-variant:normal;font-stretch:normal;font-family:Sans;-inkscape-font-specification:Sans"
             d="m 222.25781,124.23715 0,-13.24218 3.59375,0 0,13.10547 c 0,2.07031 0.40364,3.6263 1.21094,4.66796 0.80728,1.02865 2.01822,1.54298 3.63281,1.54297 1.94009,1e-5 3.47004,-0.61848 4.58985,-1.85547 1.13279,-1.23697 1.6992,-2.92317 1.69921,-5.05859 l 0,-12.40234 3.59375,0 0,21.875 -3.59375,0 0,-3.35938 c -0.87241,1.32813 -1.88803,2.31771 -3.04687,2.96875 -1.14585,0.63802 -2.48048,0.95703 -4.00391,0.95703 -2.51303,0 -4.42058,-0.78125 -5.72265,-2.34375 -1.30209,-1.56249 -1.95313,-3.84765 -1.95313,-6.85547 m 9.04297,-13.76953 0,0"
             inkscape:connector-curvature="0" />
          <path
             id="path4328-6"
             style="font-variant:normal;font-stretch:normal;font-family:Sans;-inkscape-font-specification:Sans"
             d="m 263.72266,121.952 c -2e-5,-2.64322 -0.5469,-4.71353 -1.64063,-6.21094 -1.08074,-1.5104 -2.57163,-2.26561 -4.47266,-2.26562 -1.90105,10e-6 -3.39844,0.75522 -4.49218,2.26562 -1.08074,1.49741 -1.6211,3.56772 -1.6211,6.21094 0,2.64324 0.54036,4.72006 1.6211,6.23047 1.09374,1.4974 2.59113,2.24609 4.49218,2.24609 1.90103,0 3.39192,-0.74869 4.47266,-2.24609 1.09373,-1.51041 1.64061,-3.58723 1.64063,-6.23047 m -12.22657,-7.63672 c 0.7552,-1.30206 1.70572,-2.26561 2.85157,-2.89063 1.15884,-0.63799 2.53905,-0.957 4.14062,-0.95703 2.65623,3e-5 4.81118,1.05471 6.46484,3.16407 1.66665,2.10939 2.49998,4.88282 2.5,8.32031 -2e-5,3.43751 -0.83335,6.21094 -2.5,8.32031 -1.65366,2.10938 -3.80861,3.16406 -6.46484,3.16406 -1.60157,0 -2.98178,-0.3125 -4.14062,-0.9375 -1.14585,-0.63802 -2.09637,-1.60807 -2.85157,-2.91015 l 0,3.28125 -3.61328,0 0,-30.39063 3.61328,0 0,11.83594"
             inkscape:connector-curvature="0" />
        </g>
        <g
           id="flowRoot4033-6-8"
           style="font-size:40px;font-style:normal;font-weight:normal;line-height:125%;letter-spacing:0px;word-spacing:0px;fill:#000000;fill-opacity:1;stroke:none;font-family:Sans"
           transform="matrix(0.33214997,0,0,0.33214997,24.49282,852.63217)">
          <path
             id="path4317-8"
             style="font-variant:normal;font-stretch:normal;font-family:Sans;-inkscape-font-specification:Sans"
             d="m 215.71484,111.6395 0,3.39844 c -1.01564,-0.52082 -2.07032,-0.91144 -3.16406,-1.17188 -1.09376,-0.2604 -2.22657,-0.39061 -3.39844,-0.39062 -1.78386,10e-6 -3.125,0.27345 -4.02343,0.82031 -0.88543,0.54689 -1.32813,1.3672 -1.32813,2.46094 0,0.83334 0.31901,1.4909 0.95703,1.97265 0.63802,0.46877 1.92057,0.91798 3.84766,1.34766 l 1.23047,0.27344 c 2.55207,0.54688 4.36196,1.32162 5.42968,2.32421 1.08072,0.9896 1.62108,2.37631 1.6211,4.16016 -2e-5,2.03125 -0.80731,3.63933 -2.42188,4.82422 -1.60157,1.18489 -3.8086,1.77734 -6.62109,1.77734 -1.17188,0 -2.39584,-0.11719 -3.67188,-0.35156 -1.26302,-0.22135 -2.59765,-0.5599 -4.0039,-1.01562 l 0,-3.71094 c 1.32812,0.69011 2.63671,1.21094 3.92578,1.5625 1.28906,0.33854 2.5651,0.50781 3.82812,0.50781 1.6927,0 2.99478,-0.28646 3.90625,-0.85937 0.91145,-0.58594 1.36718,-1.40625 1.36719,-2.46094 -1e-5,-0.97656 -0.33204,-1.72526 -0.99609,-2.2461 -0.65106,-0.52082 -2.08986,-1.02212 -4.31641,-1.5039 l -1.25,-0.29297 c -2.22657,-0.46874 -3.83464,-1.18489 -4.82422,-2.14844 -0.98958,-0.97655 -1.48437,-2.31118 -1.48437,-4.0039 0,-2.05728 0.72916,-3.64582 2.1875,-4.76563 1.45833,-1.11977 3.52864,-1.67966 6.21094,-1.67969 1.32811,3e-5 2.57811,0.0977 3.75,0.29297 1.17186,0.19534 2.25258,0.4883 3.24218,0.87891"
             inkscape:connector-curvature="0" />
          <path
             id="path4319-5"
             style="font-variant:normal;font-stretch:normal;font-family:Sans;-inkscape-font-specification:Sans"
             d="m 222.25781,124.23715 0,-13.24218 3.59375,0 0,13.10547 c 0,2.07031 0.40364,3.6263 1.21094,4.66796 0.80728,1.02865 2.01822,1.54298 3.63281,1.54297 1.94009,1e-5 3.47004,-0.61848 4.58985,-1.85547 1.13279,-1.23697 1.6992,-2.92317 1.69921,-5.05859 l 0,-12.40234 3.59375,0 0,21.875 -3.59375,0 0,-3.35938 c -0.87241,1.32813 -1.88803,2.31771 -3.04687,2.96875 -1.14585,0.63802 -2.48048,0.95703 -4.00391,0.95703 -2.51303,0 -4.42058,-0.78125 -5.72265,-2.34375 -1.30209,-1.56249 -1.95313,-3.84765 -1.95313,-6.85547 m 9.04297,-13.76953 0,0"
             inkscape:connector-curvature="0" />
          <path
             id="path4321-3"
             style="font-variant:normal;font-stretch:normal;font-family:Sans;-inkscape-font-specification:Sans"
             d="m 263.72266,121.952 c -2e-5,-2.64322 -0.5469,-4.71353 -1.64063,-6.21094 -1.08074,-1.5104 -2.57163,-2.26561 -4.47266,-2.26562 -1.90105,10e-6 -3.39844,0.75522 -4.49218,2.26562 -1.08074,1.49741 -1.6211,3.56772 -1.6211,6.21094 0,2.64324 0.54036,4.72006 1.6211,6.23047 1.09374,1.4974 2.59113,2.24609 4.49218,2.24609 1.90103,0 3.39192,-0.74869 4.47266,-2.24609 1.09373,-1.51041 1.64061,-3.58723 1.64063,-6.23047 m -12.22657,-7.63672 c 0.7552,-1.30206 1.70572,-2.26561 2.85157,-2.89063 1.15884,-0.63799 2.53905,-0.957 4.14062,-0.95703 2.65623,3e-5 4.81118,1.05471 6.46484,3.16407 1.66665,2.10939 2.49998,4.88282 2.5,8.32031 -2e-5,3.43751 -0.83335,6.21094 -2.5,8.32031 -1.65366,2.10938 -3.80861,3.16406 -6.46484,3.16406 -1.60157,0 -2.98178,-0.3125 -4.14062,-0.9375 -1.14585,-0.63802 -2.09637,-1.60807 -2.85157,-2.91015 l 0,3.28125 -3.61328,0 0,-30.39063 3.61328,0 0,11.83594"
             inkscape:connector-curvature="0" />
        </g>
        <g
           id="flowRoot4033-63-4"
           style="font-size:40px;font-style:normal;font-weight:normal;line-height:125%;letter-spacing:0px;word-spacing:0px;fill:#000000;fill-opacity:1;stroke:none;font-family:Sans"
           transform="matrix(0.33214997,0,0,0.33214997,97.56581,852.63217)">
          <path
             id="path4310-7"
             style="font-variant:normal;font-stretch:normal;font-family:Sans;-inkscape-font-specification:Sans"
             d="m 215.71484,111.6395 0,3.39844 c -1.01564,-0.52082 -2.07032,-0.91144 -3.16406,-1.17188 -1.09376,-0.2604 -2.22657,-0.39061 -3.39844,-0.39062 -1.78386,10e-6 -3.125,0.27345 -4.02343,0.82031 -0.88543,0.54689 -1.32813,1.3672 -1.32813,2.46094 0,0.83334 0.31901,1.4909 0.95703,1.97265 0.63802,0.46877 1.92057,0.91798 3.84766,1.34766 l 1.23047,0.27344 c 2.55207,0.54688 4.36196,1.32162 5.42968,2.32421 1.08072,0.9896 1.62108,2.37631 1.6211,4.16016 -2e-5,2.03125 -0.80731,3.63933 -2.42188,4.82422 -1.60157,1.18489 -3.8086,1.77734 -6.62109,1.77734 -1.17188,0 -2.39584,-0.11719 -3.67188,-0.35156 -1.26302,-0.22135 -2.59765,-0.5599 -4.0039,-1.01562 l 0,-3.71094 c 1.32812,0.69011 2.63671,1.21094 3.92578,1.5625 1.28906,0.33854 2.5651,0.50781 3.82812,0.50781 1.6927,0 2.99478,-0.28646 3.90625,-0.85937 0.91145,-0.58594 1.36718,-1.40625 1.36719,-2.46094 -1e-5,-0.97656 -0.33204,-1.72526 -0.99609,-2.2461 -0.65106,-0.52082 -2.08986,-1.02212 -4.31641,-1.5039 l -1.25,-0.29297 c -2.22657,-0.46874 -3.83464,-1.18489 -4.82422,-2.14844 -0.98958,-0.97655 -1.48437,-2.31118 -1.48437,-4.0039 0,-2.05728 0.72916,-3.64582 2.1875,-4.76563 1.45833,-1.11977 3.52864,-1.67966 6.21094,-1.67969 1.32811,3e-5 2.57811,0.0977 3.75,0.29297 1.17186,0.19534 2.25258,0.4883 3.24218,0.87891"
             inkscape:connector-curvature="0" />
          <path
             id="path4312-3"
             style="font-variant:normal;font-stretch:normal;font-family:Sans;-inkscape-font-specification:Sans"
             d="m 222.25781,124.23715 0,-13.24218 3.59375,0 0,13.10547 c 0,2.07031 0.40364,3.6263 1.21094,4.66796 0.80728,1.02865 2.01822,1.54298 3.63281,1.54297 1.94009,1e-5 3.47004,-0.61848 4.58985,-1.85547 1.13279,-1.23697 1.6992,-2.92317 1.69921,-5.05859 l 0,-12.40234 3.59375,0 0,21.875 -3.59375,0 0,-3.35938 c -0.87241,1.32813 -1.88803,2.31771 -3.04687,2.96875 -1.14585,0.63802 -2.48048,0.95703 -4.00391,0.95703 -2.51303,0 -4.42058,-0.78125 -5.72265,-2.34375 -1.30209,-1.56249 -1.95313,-3.84765 -1.95313,-6.85547 m 9.04297,-13.76953 0,0"
             inkscape:connector-curvature="0" />
          <path
             id="path4314-2"
             style="font-variant:normal;font-stretch:normal;font-family:Sans;-inkscape-font-specification:Sans"
             d="m 263.72266,121.952 c -2e-5,-2.64322 -0.5469,-4.71353 -1.64063,-6.21094 -1.08074,-1.5104 -2.57163,-2.26561 -4.47266,-2.26562 -1.90105,10e-6 -3.39844,0.75522 -4.49218,2.26562 -1.08074,1.49741 -1.6211,3.56772 -1.6211,6.21094 0,2.64324 0.54036,4.72006 1.6211,6.23047 1.09374,1.4974 2.59113,2.24609 4.49218,2.24609 1.90103,0 3.39192,-0.74869 4.47266,-2.24609 1.09373,-1.51041 1.64061,-3.58723 1.64063,-6.23047 m -12.22657,-7.63672 c 0.7552,-1.30206 1.70572,-2.26561 2.85157,-2.89063 1.15884,-0.63799 2.53905,-0.957 4.14062,-0.95703 2.65623,3e-5 4.81118,1.05471 6.46484,3.16407 1.66665,2.10939 2.49998,4.88282 2.5,8.32031 -2e-5,3.43751 -0.83335,6.21094 -2.5,8.32031 -1.65366,2.10938 -3.80861,3.16406 -6.46484,3.16406 -1.60157,0 -2.98178,-0.3125 -4.14062,-0.9375 -1.14585,-0.63802 -2.09637,-1.60807 -2.85157,-2.91015 l 0,3.28125 -3.61328,0 0,-30.39063 3.61328,0 0,11.83594"
             inkscape:connector-curvature="0" />
        </g>
        <g
           id="flowRoot4081-4"
           style="font-size:40px;font-style:normal;font-weight:normal;line-height:125%;letter-spacing:0px;word-spacing:0px;fill:#000000;fill-opacity:1;stroke:none;font-family:Sans"
           transform="matrix(0.33214997,0,0,0.33214997,51.85497,808.77438)">
          <path
             id="path4299-3"
             d="m 221.71484,436.6395 0,3.39844 c -1.01564,-0.52082 -2.07032,-0.91144 -3.16406,-1.17188 -1.09376,-0.2604 -2.22657,-0.39061 -3.39844,-0.39062 -1.78386,1e-5 -3.125,0.27345 -4.02343,0.82031 -0.88543,0.54689 -1.32813,1.3672 -1.32813,2.46094 0,0.83334 0.31901,1.4909 0.95703,1.97265 0.63802,0.46877 1.92057,0.91798 3.84766,1.34766 l 1.23047,0.27344 c 2.55207,0.54688 4.36196,1.32162 5.42968,2.32421 1.08072,0.9896 1.62108,2.37631 1.6211,4.16016 -2e-5,2.03125 -0.80731,3.63933 -2.42188,4.82422 -1.60157,1.18489 -3.8086,1.77734 -6.62109,1.77734 -1.17188,0 -2.39584,-0.11719 -3.67188,-0.35156 -1.26302,-0.22135 -2.59765,-0.5599 -4.0039,-1.01562 l 0,-3.71094 c 1.32812,0.69011 2.63671,1.21094 3.92578,1.5625 1.28906,0.33854 2.5651,0.50781 3.82812,0.50781 1.6927,0 2.99478,-0.28646 3.90625,-0.85937 0.91145,-0.58594 1.36718,-1.40625 1.36719,-2.46094 -1e-5,-0.97656 -0.33204,-1.72526 -0.99609,-2.2461 -0.65106,-0.52082 -2.08986,-1.02212 -4.31641,-1.5039 l -1.25,-0.29297 c -2.22657,-0.46874 -3.83464,-1.18489 -4.82422,-2.14844 -0.98958,-0.97655 -1.48437,-2.31118 -1.48437,-4.0039 0,-2.05728 0.72916,-3.64582 2.1875,-4.76563 1.45833,-1.11977 3.52864,-1.67966 6.21094,-1.67969 1.32811,3e-5 2.57811,0.0977 3.75,0.29297 1.17186,0.19534 2.25258,0.4883 3.24218,0.87891"
             inkscape:connector-curvature="0" />
          <path
             id="path4301-0"
             d="m 228.25781,449.23715 0,-13.24218 3.59375,0 0,13.10547 c 0,2.07031 0.40364,3.6263 1.21094,4.66796 0.80728,1.02865 2.01822,1.54298 3.63281,1.54297 1.94009,10e-6 3.47004,-0.61848 4.58985,-1.85547 1.13279,-1.23697 1.6992,-2.92317 1.69921,-5.05859 l 0,-12.40234 3.59375,0 0,21.875 -3.59375,0 0,-3.35938 c -0.87241,1.32813 -1.88803,2.31771 -3.04687,2.96875 -1.14585,0.63802 -2.48048,0.95703 -4.00391,0.95703 -2.51303,0 -4.42058,-0.78125 -5.72265,-2.34375 -1.30209,-1.56249 -1.95313,-3.84765 -1.95313,-6.85547 m 9.04297,-13.76953 0,0"
             inkscape:connector-curvature="0" />
          <path
             id="path4303-1"
             d="m 257.49609,454.58872 0,11.60156 -3.61328,0 0,-30.19531 3.61328,0 0,3.32031 c 0.7552,-1.30206 1.70572,-2.26561 2.85157,-2.89063 1.15884,-0.63799 2.53905,-0.957 4.14062,-0.95703 2.65623,3e-5 4.81118,1.05471 6.46484,3.16407 1.66665,2.10939 2.49998,4.88282 2.5,8.32031 -2e-5,3.43751 -0.83335,6.21094 -2.5,8.32031 -1.65366,2.10938 -3.80861,3.16406 -6.46484,3.16406 -1.60157,0 -2.98178,-0.3125 -4.14062,-0.9375 -1.14585,-0.63802 -2.09637,-1.60807 -2.85157,-2.91015 m 12.22657,-7.63672 c -2e-5,-2.64322 -0.5469,-4.71353 -1.64063,-6.21094 -1.08074,-1.5104 -2.57163,-2.26561 -4.47266,-2.26562 -1.90105,1e-5 -3.39844,0.75522 -4.49218,2.26562 -1.08074,1.49741 -1.6211,3.56772 -1.6211,6.21094 0,2.64324 0.54036,4.72006 1.6211,6.23047 1.09374,1.4974 2.59113,2.24609 4.49218,2.24609 1.90103,0 3.39192,-0.74869 4.47266,-2.24609 1.09373,-1.51041 1.64061,-3.58723 1.64063,-6.23047"
             inkscape:connector-curvature="0" />
          <path
             id="path4305-1"
             d="m 298.12109,446.03403 0,1.75781 -16.52343,0 c 0.15624,2.47397 0.89843,4.36199 2.22656,5.66406 1.34114,1.28907 3.20311,1.9336 5.58594,1.9336 1.38019,0 2.71482,-0.16927 4.0039,-0.50781 1.30207,-0.33854 2.59113,-0.84636 3.86719,-1.52344 l 0,3.39844 c -1.28908,0.54687 -2.6107,0.96354 -3.96484,1.25 -1.35419,0.28645 -2.72788,0.42968 -4.1211,0.42968 -3.48959,0 -6.25652,-1.01562 -8.30078,-3.04687 -2.03125,-2.03125 -3.04688,-4.77864 -3.04687,-8.24219 -1e-5,-3.58071 0.96353,-6.41925 2.89062,-8.51562 1.9401,-2.10936 4.55077,-3.16404 7.83203,-3.16407 2.94269,3e-5 5.26691,0.95054 6.97266,2.85157 1.71873,1.88803 2.5781,4.45965 2.57812,7.71484 m -3.59375,-1.05469 c -0.0261,-1.96613 -0.57944,-3.53514 -1.66015,-4.70703 -1.06773,-1.17186 -2.487,-1.75779 -4.25782,-1.75781 -2.00521,2e-5 -3.61329,0.56642 -4.82421,1.69922 -1.19793,1.13283 -1.88803,2.72788 -2.07032,4.78515 l 12.8125,-0.0195"
             inkscape:connector-curvature="0" />
          <path
             id="path4307-3"
             d="m 316.69531,439.35434 c -0.40366,-0.23435 -0.84637,-0.40363 -1.32812,-0.50781 -0.46877,-0.11717 -0.9896,-0.17576 -1.5625,-0.17578 -2.03126,2e-5 -3.59376,0.66408 -4.6875,1.99219 -1.08074,1.31512 -1.6211,3.20964 -1.6211,5.68359 l 0,11.52344 -3.61328,0 0,-21.875 3.61328,0 0,3.39843 c 0.7552,-1.3281 1.73828,-2.31117 2.94922,-2.94921 1.21093,-0.65102 2.68228,-0.97654 4.41406,-0.97657 0.24739,3e-5 0.52082,0.0196 0.82032,0.0586 0.29946,0.0261 0.63149,0.0716 0.99609,0.13672 l 0.0195,3.6914"
             inkscape:connector-curvature="0" />
        </g>
      </g>
      <g
         id="g4675">
        <path
           id="path2985-0-42-2"
           d="m 360.40103,912.74361 c 0,19.84775 -16.08976,35.93755 -35.93753,35.93755 -19.84775,0 -35.93754,-16.0898 -35.93754,-35.93755 0,-19.84775 16.08979,-35.93754 35.93754,-35.93754 19.84253,0 35.93014,16.08161 35.93753,35.92413"
           style="fill:none;stroke:#000000;stroke-width:1.19791794;stroke-linecap:butt;stroke-linejoin:round;stroke-miterlimit:3.79999995;stroke-opacity:1;marker-start:none"
           inkscape:connector-curvature="0" />
        <path
           id="path2985-0-4-6-6"
           d="m 433.47404,912.74361 c 0,19.84775 -16.08978,35.93755 -35.93754,35.93755 -19.84776,0 -35.93754,-16.0898 -35.93754,-35.93755 0,-19.84775 16.08978,-35.93754 35.93754,-35.93754 19.84252,0 35.93013,16.08161 35.93753,35.92413"
           style="fill:none;stroke:#000000;stroke-width:1.19791794;stroke-linecap:butt;stroke-linejoin:round;stroke-miterlimit:3.79999995;stroke-opacity:1;marker-start:none"
           inkscape:connector-curvature="0" />
        <path
           id="path2985-0-4-5-4-4"
           d="m 396.93753,849.6351 c 0,19.84776 -16.08978,35.93755 -35.93753,35.93755 -19.84775,0 -35.93753,-16.08979 -35.93753,-35.93755 0,-19.84773 16.08978,-35.93753 35.93753,-35.93753 19.84251,0 35.93014,16.08161 35.93754,35.92412"
           style="fill:none;stroke:#000000;stroke-width:1.19791794;stroke-linecap:butt;stroke-linejoin:round;stroke-miterlimit:3.79999995;stroke-opacity:1;marker-start:none"
           inkscape:connector-curvature="0" />
        <g
           id="flowRoot4033-2-1"
           style="font-size:40px;font-style:normal;font-weight:normal;line-height:125%;letter-spacing:0px;word-spacing:0px;fill:#000000;fill-opacity:1;stroke:none;font-family:Sans"
           transform="matrix(0.33214997,0,0,0.33214997,283.33983,831.69901)">
          <path
             id="path4324-1-9"
             style="font-variant:normal;font-stretch:normal;font-family:Sans;-inkscape-font-specification:Sans"
             d="m 215.71484,111.6395 0,3.39844 c -1.01564,-0.52082 -2.07032,-0.91144 -3.16406,-1.17188 -1.09376,-0.2604 -2.22657,-0.39061 -3.39844,-0.39062 -1.78386,10e-6 -3.125,0.27345 -4.02343,0.82031 -0.88543,0.54689 -1.32813,1.3672 -1.32813,2.46094 0,0.83334 0.31901,1.4909 0.95703,1.97265 0.63802,0.46877 1.92057,0.91798 3.84766,1.34766 l 1.23047,0.27344 c 2.55207,0.54688 4.36196,1.32162 5.42968,2.32421 1.08072,0.9896 1.62108,2.37631 1.6211,4.16016 -2e-5,2.03125 -0.80731,3.63933 -2.42188,4.82422 -1.60157,1.18489 -3.8086,1.77734 -6.62109,1.77734 -1.17188,0 -2.39584,-0.11719 -3.67188,-0.35156 -1.26302,-0.22135 -2.59765,-0.5599 -4.0039,-1.01562 l 0,-3.71094 c 1.32812,0.69011 2.63671,1.21094 3.92578,1.5625 1.28906,0.33854 2.5651,0.50781 3.82812,0.50781 1.6927,0 2.99478,-0.28646 3.90625,-0.85937 0.91145,-0.58594 1.36718,-1.40625 1.36719,-2.46094 -1e-5,-0.97656 -0.33204,-1.72526 -0.99609,-2.2461 -0.65106,-0.52082 -2.08986,-1.02212 -4.31641,-1.5039 l -1.25,-0.29297 c -2.22657,-0.46874 -3.83464,-1.18489 -4.82422,-2.14844 -0.98958,-0.97655 -1.48437,-2.31118 -1.48437,-4.0039 0,-2.05728 0.72916,-3.64582 2.1875,-4.76563 1.45833,-1.11977 3.52864,-1.67966 6.21094,-1.67969 1.32811,3e-5 2.57811,0.0977 3.75,0.29297 1.17186,0.19534 2.25258,0.4883 3.24218,0.87891"
             inkscape:connector-curvature="0" />
          <path
             id="path4326-0-6"
             style="font-variant:normal;font-stretch:normal;font-family:Sans;-inkscape-font-specification:Sans"
             d="m 222.25781,124.23715 0,-13.24218 3.59375,0 0,13.10547 c 0,2.07031 0.40364,3.6263 1.21094,4.66796 0.80728,1.02865 2.01822,1.54298 3.63281,1.54297 1.94009,1e-5 3.47004,-0.61848 4.58985,-1.85547 1.13279,-1.23697 1.6992,-2.92317 1.69921,-5.05859 l 0,-12.40234 3.59375,0 0,21.875 -3.59375,0 0,-3.35938 c -0.87241,1.32813 -1.88803,2.31771 -3.04687,2.96875 -1.14585,0.63802 -2.48048,0.95703 -4.00391,0.95703 -2.51303,0 -4.42058,-0.78125 -5.72265,-2.34375 -1.30209,-1.56249 -1.95313,-3.84765 -1.95313,-6.85547 m 9.04297,-13.76953 0,0"
             inkscape:connector-curvature="0" />
          <path
             id="path4328-6-7"
             style="font-variant:normal;font-stretch:normal;font-family:Sans;-inkscape-font-specification:Sans"
             d="m 263.72266,121.952 c -2e-5,-2.64322 -0.5469,-4.71353 -1.64063,-6.21094 -1.08074,-1.5104 -2.57163,-2.26561 -4.47266,-2.26562 -1.90105,10e-6 -3.39844,0.75522 -4.49218,2.26562 -1.08074,1.49741 -1.6211,3.56772 -1.6211,6.21094 0,2.64324 0.54036,4.72006 1.6211,6.23047 1.09374,1.4974 2.59113,2.24609 4.49218,2.24609 1.90103,0 3.39192,-0.74869 4.47266,-2.24609 1.09373,-1.51041 1.64061,-3.58723 1.64063,-6.23047 m -12.22657,-7.63672 c 0.7552,-1.30206 1.70572,-2.26561 2.85157,-2.89063 1.15884,-0.63799 2.53905,-0.957 4.14062,-0.95703 2.65623,3e-5 4.81118,1.05471 6.46484,3.16407 1.66665,2.10939 2.49998,4.88282 2.5,8.32031 -2e-5,3.43751 -0.83335,6.21094 -2.5,8.32031 -1.65366,2.10938 -3.80861,3.16406 -6.46484,3.16406 -1.60157,0 -2.98178,-0.3125 -4.14062,-0.9375 -1.14585,-0.63802 -2.09637,-1.60807 -2.85157,-2.91015 l 0,3.28125 -3.61328,0 0,-30.39063 3.61328,0 0,11.83594"
             inkscape:connector-curvature="0" />
        </g>
        <g
           id="flowRoot4033-6-8-1"
           style="font-size:40px;font-style:normal;font-weight:normal;line-height:125%;letter-spacing:0px;word-spacing:0px;fill:#000000;fill-opacity:1;stroke:none;font-family:Sans"
           transform="matrix(0.33214997,0,0,0.33214997,246.80334,852.63846)">
          <path
             id="path4317-8-6"
             style="font-variant:normal;font-stretch:normal;font-family:Sans;-inkscape-font-specification:Sans"
             d="m 215.71484,111.6395 0,3.39844 c -1.01564,-0.52082 -2.07032,-0.91144 -3.16406,-1.17188 -1.09376,-0.2604 -2.22657,-0.39061 -3.39844,-0.39062 -1.78386,10e-6 -3.125,0.27345 -4.02343,0.82031 -0.88543,0.54689 -1.32813,1.3672 -1.32813,2.46094 0,0.83334 0.31901,1.4909 0.95703,1.97265 0.63802,0.46877 1.92057,0.91798 3.84766,1.34766 l 1.23047,0.27344 c 2.55207,0.54688 4.36196,1.32162 5.42968,2.32421 1.08072,0.9896 1.62108,2.37631 1.6211,4.16016 -2e-5,2.03125 -0.80731,3.63933 -2.42188,4.82422 -1.60157,1.18489 -3.8086,1.77734 -6.62109,1.77734 -1.17188,0 -2.39584,-0.11719 -3.67188,-0.35156 -1.26302,-0.22135 -2.59765,-0.5599 -4.0039,-1.01562 l 0,-3.71094 c 1.32812,0.69011 2.63671,1.21094 3.92578,1.5625 1.28906,0.33854 2.5651,0.50781 3.82812,0.50781 1.6927,0 2.99478,-0.28646 3.90625,-0.85937 0.91145,-0.58594 1.36718,-1.40625 1.36719,-2.46094 -1e-5,-0.97656 -0.33204,-1.72526 -0.99609,-2.2461 -0.65106,-0.52082 -2.08986,-1.02212 -4.31641,-1.5039 l -1.25,-0.29297 c -2.22657,-0.46874 -3.83464,-1.18489 -4.82422,-2.14844 -0.98958,-0.97655 -1.48437,-2.31118 -1.48437,-4.0039 0,-2.05728 0.72916,-3.64582 2.1875,-4.76563 1.45833,-1.11977 3.52864,-1.67966 6.21094,-1.67969 1.32811,3e-5 2.57811,0.0977 3.75,0.29297 1.17186,0.19534 2.25258,0.4883 3.24218,0.87891"
             inkscape:connector-curvature="0" />
          <path
             id="path4319-5-1"
             style="font-variant:normal;font-stretch:normal;font-family:Sans;-inkscape-font-specification:Sans"
             d="m 222.25781,124.23715 0,-13.24218 3.59375,0 0,13.10547 c 0,2.07031 0.40364,3.6263 1.21094,4.66796 0.80728,1.02865 2.01822,1.54298 3.63281,1.54297 1.94009,1e-5 3.47004,-0.61848 4.58985,-1.85547 1.13279,-1.23697 1.6992,-2.92317 1.69921,-5.05859 l 0,-12.40234 3.59375,0 0,21.875 -3.59375,0 0,-3.35938 c -0.87241,1.32813 -1.88803,2.31771 -3.04687,2.96875 -1.14585,0.63802 -2.48048,0.95703 -4.00391,0.95703 -2.51303,0 -4.42058,-0.78125 -5.72265,-2.34375 -1.30209,-1.56249 -1.95313,-3.84765 -1.95313,-6.85547 m 9.04297,-13.76953 0,0"
             inkscape:connector-curvature="0" />
          <path
             id="path4321-3-5"
             style="font-variant:normal;font-stretch:normal;font-family:Sans;-inkscape-font-specification:Sans"
             d="m 263.72266,121.952 c -2e-5,-2.64322 -0.5469,-4.71353 -1.64063,-6.21094 -1.08074,-1.5104 -2.57163,-2.26561 -4.47266,-2.26562 -1.90105,10e-6 -3.39844,0.75522 -4.49218,2.26562 -1.08074,1.49741 -1.6211,3.56772 -1.6211,6.21094 0,2.64324 0.54036,4.72006 1.6211,6.23047 1.09374,1.4974 2.59113,2.24609 4.49218,2.24609 1.90103,0 3.39192,-0.74869 4.47266,-2.24609 1.09373,-1.51041 1.64061,-3.58723 1.64063,-6.23047 m -12.22657,-7.63672 c 0.7552,-1.30206 1.70572,-2.26561 2.85157,-2.89063 1.15884,-0.63799 2.53905,-0.957 4.14062,-0.95703 2.65623,3e-5 4.81118,1.05471 6.46484,3.16407 1.66665,2.10939 2.49998,4.88282 2.5,8.32031 -2e-5,3.43751 -0.83335,6.21094 -2.5,8.32031 -1.65366,2.10938 -3.80861,3.16406 -6.46484,3.16406 -1.60157,0 -2.98178,-0.3125 -4.14062,-0.9375 -1.14585,-0.63802 -2.09637,-1.60807 -2.85157,-2.91015 l 0,3.28125 -3.61328,0 0,-30.39063 3.61328,0 0,11.83594"
             inkscape:connector-curvature="0" />
        </g>
        <g
           id="flowRoot4033-63-4-2"
           style="font-size:40px;font-style:normal;font-weight:normal;line-height:125%;letter-spacing:0px;word-spacing:0px;fill:#000000;fill-opacity:1;stroke:none;font-family:Sans"
           transform="matrix(0.33214997,0,0,0.33214997,319.87633,852.63846)">
          <path
             id="path4310-7-7"
             style="font-variant:normal;font-stretch:normal;font-family:Sans;-inkscape-font-specification:Sans"
             d="m 215.71484,111.6395 0,3.39844 c -1.01564,-0.52082 -2.07032,-0.91144 -3.16406,-1.17188 -1.09376,-0.2604 -2.22657,-0.39061 -3.39844,-0.39062 -1.78386,10e-6 -3.125,0.27345 -4.02343,0.82031 -0.88543,0.54689 -1.32813,1.3672 -1.32813,2.46094 0,0.83334 0.31901,1.4909 0.95703,1.97265 0.63802,0.46877 1.92057,0.91798 3.84766,1.34766 l 1.23047,0.27344 c 2.55207,0.54688 4.36196,1.32162 5.42968,2.32421 1.08072,0.9896 1.62108,2.37631 1.6211,4.16016 -2e-5,2.03125 -0.80731,3.63933 -2.42188,4.82422 -1.60157,1.18489 -3.8086,1.77734 -6.62109,1.77734 -1.17188,0 -2.39584,-0.11719 -3.67188,-0.35156 -1.26302,-0.22135 -2.59765,-0.5599 -4.0039,-1.01562 l 0,-3.71094 c 1.32812,0.69011 2.63671,1.21094 3.92578,1.5625 1.28906,0.33854 2.5651,0.50781 3.82812,0.50781 1.6927,0 2.99478,-0.28646 3.90625,-0.85937 0.91145,-0.58594 1.36718,-1.40625 1.36719,-2.46094 -1e-5,-0.97656 -0.33204,-1.72526 -0.99609,-2.2461 -0.65106,-0.52082 -2.08986,-1.02212 -4.31641,-1.5039 l -1.25,-0.29297 c -2.22657,-0.46874 -3.83464,-1.18489 -4.82422,-2.14844 -0.98958,-0.97655 -1.48437,-2.31118 -1.48437,-4.0039 0,-2.05728 0.72916,-3.64582 2.1875,-4.76563 1.45833,-1.11977 3.52864,-1.67966 6.21094,-1.67969 1.32811,3e-5 2.57811,0.0977 3.75,0.29297 1.17186,0.19534 2.25258,0.4883 3.24218,0.87891"
             inkscape:connector-curvature="0" />
          <path
             id="path4312-3-9"
             style="font-variant:normal;font-stretch:normal;font-family:Sans;-inkscape-font-specification:Sans"
             d="m 222.25781,124.23715 0,-13.24218 3.59375,0 0,13.10547 c 0,2.07031 0.40364,3.6263 1.21094,4.66796 0.80728,1.02865 2.01822,1.54298 3.63281,1.54297 1.94009,1e-5 3.47004,-0.61848 4.58985,-1.85547 1.13279,-1.23697 1.6992,-2.92317 1.69921,-5.05859 l 0,-12.40234 3.59375,0 0,21.875 -3.59375,0 0,-3.35938 c -0.87241,1.32813 -1.88803,2.31771 -3.04687,2.96875 -1.14585,0.63802 -2.48048,0.95703 -4.00391,0.95703 -2.51303,0 -4.42058,-0.78125 -5.72265,-2.34375 -1.30209,-1.56249 -1.95313,-3.84765 -1.95313,-6.85547 m 9.04297,-13.76953 0,0"
             inkscape:connector-curvature="0" />
          <path
             id="path4314-2-4"
             style="font-variant:normal;font-stretch:normal;font-family:Sans;-inkscape-font-specification:Sans"
             d="m 263.72266,121.952 c -2e-5,-2.64322 -0.5469,-4.71353 -1.64063,-6.21094 -1.08074,-1.5104 -2.57163,-2.26561 -4.47266,-2.26562 -1.90105,10e-6 -3.39844,0.75522 -4.49218,2.26562 -1.08074,1.49741 -1.6211,3.56772 -1.6211,6.21094 0,2.64324 0.54036,4.72006 1.6211,6.23047 1.09374,1.4974 2.59113,2.24609 4.49218,2.24609 1.90103,0 3.39192,-0.74869 4.47266,-2.24609 1.09373,-1.51041 1.64061,-3.58723 1.64063,-6.23047 m -12.22657,-7.63672 c 0.7552,-1.30206 1.70572,-2.26561 2.85157,-2.89063 1.15884,-0.63799 2.53905,-0.957 4.14062,-0.95703 2.65623,3e-5 4.81118,1.05471 6.46484,3.16407 1.66665,2.10939 2.49998,4.88282 2.5,8.32031 -2e-5,3.43751 -0.83335,6.21094 -2.5,8.32031 -1.65366,2.10938 -3.80861,3.16406 -6.46484,3.16406 -1.60157,0 -2.98178,-0.3125 -4.14062,-0.9375 -1.14585,-0.63802 -2.09637,-1.60807 -2.85157,-2.91015 l 0,3.28125 -3.61328,0 0,-30.39063 3.61328,0 0,11.83594"
             inkscape:connector-curvature="0" />
        </g>
        <g
           id="flowRoot4081-4-0"
           style="font-size:40px;font-style:normal;font-weight:normal;line-height:125%;letter-spacing:0px;word-spacing:0px;fill:#000000;fill-opacity:1;stroke:none;font-family:Sans"
           transform="matrix(0.33214997,0,0,0.33214997,274.16549,808.78067)">
          <path
             id="path4299-3-5"
             d="m 221.71484,436.6395 0,3.39844 c -1.01564,-0.52082 -2.07032,-0.91144 -3.16406,-1.17188 -1.09376,-0.2604 -2.22657,-0.39061 -3.39844,-0.39062 -1.78386,1e-5 -3.125,0.27345 -4.02343,0.82031 -0.88543,0.54689 -1.32813,1.3672 -1.32813,2.46094 0,0.83334 0.31901,1.4909 0.95703,1.97265 0.63802,0.46877 1.92057,0.91798 3.84766,1.34766 l 1.23047,0.27344 c 2.55207,0.54688 4.36196,1.32162 5.42968,2.32421 1.08072,0.9896 1.62108,2.37631 1.6211,4.16016 -2e-5,2.03125 -0.80731,3.63933 -2.42188,4.82422 -1.60157,1.18489 -3.8086,1.77734 -6.62109,1.77734 -1.17188,0 -2.39584,-0.11719 -3.67188,-0.35156 -1.26302,-0.22135 -2.59765,-0.5599 -4.0039,-1.01562 l 0,-3.71094 c 1.32812,0.69011 2.63671,1.21094 3.92578,1.5625 1.28906,0.33854 2.5651,0.50781 3.82812,0.50781 1.6927,0 2.99478,-0.28646 3.90625,-0.85937 0.91145,-0.58594 1.36718,-1.40625 1.36719,-2.46094 -1e-5,-0.97656 -0.33204,-1.72526 -0.99609,-2.2461 -0.65106,-0.52082 -2.08986,-1.02212 -4.31641,-1.5039 l -1.25,-0.29297 c -2.22657,-0.46874 -3.83464,-1.18489 -4.82422,-2.14844 -0.98958,-0.97655 -1.48437,-2.31118 -1.48437,-4.0039 0,-2.05728 0.72916,-3.64582 2.1875,-4.76563 1.45833,-1.11977 3.52864,-1.67966 6.21094,-1.67969 1.32811,3e-5 2.57811,0.0977 3.75,0.29297 1.17186,0.19534 2.25258,0.4883 3.24218,0.87891"
             inkscape:connector-curvature="0" />
          <path
             id="path4301-0-4"
             d="m 228.25781,449.23715 0,-13.24218 3.59375,0 0,13.10547 c 0,2.07031 0.40364,3.6263 1.21094,4.66796 0.80728,1.02865 2.01822,1.54298 3.63281,1.54297 1.94009,10e-6 3.47004,-0.61848 4.58985,-1.85547 1.13279,-1.23697 1.6992,-2.92317 1.69921,-5.05859 l 0,-12.40234 3.59375,0 0,21.875 -3.59375,0 0,-3.35938 c -0.87241,1.32813 -1.88803,2.31771 -3.04687,2.96875 -1.14585,0.63802 -2.48048,0.95703 -4.00391,0.95703 -2.51303,0 -4.42058,-0.78125 -5.72265,-2.34375 -1.30209,-1.56249 -1.95313,-3.84765 -1.95313,-6.85547 m 9.04297,-13.76953 0,0"
             inkscape:connector-curvature="0" />
          <path
             id="path4303-1-8"
             d="m 257.49609,454.58872 0,11.60156 -3.61328,0 0,-30.19531 3.61328,0 0,3.32031 c 0.7552,-1.30206 1.70572,-2.26561 2.85157,-2.89063 1.15884,-0.63799 2.53905,-0.957 4.14062,-0.95703 2.65623,3e-5 4.81118,1.05471 6.46484,3.16407 1.66665,2.10939 2.49998,4.88282 2.5,8.32031 -2e-5,3.43751 -0.83335,6.21094 -2.5,8.32031 -1.65366,2.10938 -3.80861,3.16406 -6.46484,3.16406 -1.60157,0 -2.98178,-0.3125 -4.14062,-0.9375 -1.14585,-0.63802 -2.09637,-1.60807 -2.85157,-2.91015 m 12.22657,-7.63672 c -2e-5,-2.64322 -0.5469,-4.71353 -1.64063,-6.21094 -1.08074,-1.5104 -2.57163,-2.26561 -4.47266,-2.26562 -1.90105,1e-5 -3.39844,0.75522 -4.49218,2.26562 -1.08074,1.49741 -1.6211,3.56772 -1.6211,6.21094 0,2.64324 0.54036,4.72006 1.6211,6.23047 1.09374,1.4974 2.59113,2.24609 4.49218,2.24609 1.90103,0 3.39192,-0.74869 4.47266,-2.24609 1.09373,-1.51041 1.64061,-3.58723 1.64063,-6.23047"
             inkscape:connector-curvature="0" />
          <path
             id="path4305-1-0"
             d="m 298.12109,446.03403 0,1.75781 -16.52343,0 c 0.15624,2.47397 0.89843,4.36199 2.22656,5.66406 1.34114,1.28907 3.20311,1.9336 5.58594,1.9336 1.38019,0 2.71482,-0.16927 4.0039,-0.50781 1.30207,-0.33854 2.59113,-0.84636 3.86719,-1.52344 l 0,3.39844 c -1.28908,0.54687 -2.6107,0.96354 -3.96484,1.25 -1.35419,0.28645 -2.72788,0.42968 -4.1211,0.42968 -3.48959,0 -6.25652,-1.01562 -8.30078,-3.04687 -2.03125,-2.03125 -3.04688,-4.77864 -3.04687,-8.24219 -1e-5,-3.58071 0.96353,-6.41925 2.89062,-8.51562 1.9401,-2.10936 4.55077,-3.16404 7.83203,-3.16407 2.94269,3e-5 5.26691,0.95054 6.97266,2.85157 1.71873,1.88803 2.5781,4.45965 2.57812,7.71484 m -3.59375,-1.05469 c -0.0261,-1.96613 -0.57944,-3.53514 -1.66015,-4.70703 -1.06773,-1.17186 -2.487,-1.75779 -4.25782,-1.75781 -2.00521,2e-5 -3.61329,0.56642 -4.82421,1.69922 -1.19793,1.13283 -1.88803,2.72788 -2.07032,4.78515 l 12.8125,-0.0195"
             inkscape:connector-curvature="0" />
          <path
             id="path4307-3-9"
             d="m 316.69531,439.35434 c -0.40366,-0.23435 -0.84637,-0.40363 -1.32812,-0.50781 -0.46877,-0.11717 -0.9896,-0.17576 -1.5625,-0.17578 -2.03126,2e-5 -3.59376,0.66408 -4.6875,1.99219 -1.08074,1.31512 -1.6211,3.20964 -1.6211,5.68359 l 0,11.52344 -3.61328,0 0,-21.875 3.61328,0 0,3.39843 c 0.7552,-1.3281 1.73828,-2.31117 2.94922,-2.94921 1.21093,-0.65102 2.68228,-0.97654 4.41406,-0.97657 0.24739,3e-5 0.52082,0.0196 0.82032,0.0586 0.29946,0.0261 0.63149,0.0716 0.99609,0.13672 l 0.0195,3.6914"
             inkscape:connector-curvature="0" />
        </g>
      </g>
      <g
         id="g4652"
         transform="translate(242,-8)">
        <path
           id="path2985-0-42-2-3"
           d="m 7.4010295,683.74361 c 0,19.84775 -16.08976,35.93755 -35.9375295,35.93755 -19.84775,0 -35.937541,-16.0898 -35.937541,-35.93755 0,-19.84775 16.089791,-35.93754 35.937541,-35.93754 19.8425295,0 35.9301395,16.08161 35.9375295,35.92413"
           style="fill:none;stroke:#000000;stroke-width:1.19791794;stroke-linecap:butt;stroke-linejoin:round;stroke-miterlimit:3.79999995;stroke-opacity:1;marker-start:none"
           inkscape:connector-curvature="0" />
        <path
           id="path2985-0-4-6-6-0"
           d="m 80.474041,683.74361 c 0,19.84775 -16.08978,35.93755 -35.93754,35.93755 -19.847761,0 -35.9375415,-16.0898 -35.9375415,-35.93755 0,-19.84775 16.0897805,-35.93754 35.9375415,-35.93754 19.84252,0 35.93013,16.08161 35.93753,35.92413"
           style="fill:none;stroke:#000000;stroke-width:1.19791794;stroke-linecap:butt;stroke-linejoin:round;stroke-miterlimit:3.79999995;stroke-opacity:1;marker-start:none"
           inkscape:connector-curvature="0" />
        <path
           id="path2985-0-4-5-4-4-2"
           d="m 43.937531,620.6351 c 0,19.84776 -16.089781,35.93755 -35.9375315,35.93755 -19.8477495,0 -35.9375295,-16.08979 -35.9375295,-35.93755 0,-19.84773 16.08978,-35.93753 35.9375295,-35.93753 19.8425105,0 35.9301415,16.08161 35.9375415,35.92412"
           style="fill:none;stroke:#000000;stroke-width:1.19791794;stroke-linecap:butt;stroke-linejoin:round;stroke-miterlimit:3.79999995;stroke-opacity:1;marker-start:none"
           inkscape:connector-curvature="0" />
        <g
           id="flowRoot4033-2-1-7"
           style="font-size:40px;font-style:normal;font-weight:normal;line-height:125%;letter-spacing:0px;word-spacing:0px;fill:#000000;fill-opacity:1;stroke:none;font-family:Sans"
           transform="matrix(0.33214997,0,0,0.33214997,-69.66017,602.69901)">
          <path
             id="path4324-1-9-6"
             style="font-variant:normal;font-stretch:normal;font-family:Sans;-inkscape-font-specification:Sans"
             d="m 215.71484,111.6395 0,3.39844 c -1.01564,-0.52082 -2.07032,-0.91144 -3.16406,-1.17188 -1.09376,-0.2604 -2.22657,-0.39061 -3.39844,-0.39062 -1.78386,10e-6 -3.125,0.27345 -4.02343,0.82031 -0.88543,0.54689 -1.32813,1.3672 -1.32813,2.46094 0,0.83334 0.31901,1.4909 0.95703,1.97265 0.63802,0.46877 1.92057,0.91798 3.84766,1.34766 l 1.23047,0.27344 c 2.55207,0.54688 4.36196,1.32162 5.42968,2.32421 1.08072,0.9896 1.62108,2.37631 1.6211,4.16016 -2e-5,2.03125 -0.80731,3.63933 -2.42188,4.82422 -1.60157,1.18489 -3.8086,1.77734 -6.62109,1.77734 -1.17188,0 -2.39584,-0.11719 -3.67188,-0.35156 -1.26302,-0.22135 -2.59765,-0.5599 -4.0039,-1.01562 l 0,-3.71094 c 1.32812,0.69011 2.63671,1.21094 3.92578,1.5625 1.28906,0.33854 2.5651,0.50781 3.82812,0.50781 1.6927,0 2.99478,-0.28646 3.90625,-0.85937 0.91145,-0.58594 1.36718,-1.40625 1.36719,-2.46094 -1e-5,-0.97656 -0.33204,-1.72526 -0.99609,-2.2461 -0.65106,-0.52082 -2.08986,-1.02212 -4.31641,-1.5039 l -1.25,-0.29297 c -2.22657,-0.46874 -3.83464,-1.18489 -4.82422,-2.14844 -0.98958,-0.97655 -1.48437,-2.31118 -1.48437,-4.0039 0,-2.05728 0.72916,-3.64582 2.1875,-4.76563 1.45833,-1.11977 3.52864,-1.67966 6.21094,-1.67969 1.32811,3e-5 2.57811,0.0977 3.75,0.29297 1.17186,0.19534 2.25258,0.4883 3.24218,0.87891"
             inkscape:connector-curvature="0" />
          <path
             id="path4326-0-6-7"
             style="font-variant:normal;font-stretch:normal;font-family:Sans;-inkscape-font-specification:Sans"
             d="m 222.25781,124.23715 0,-13.24218 3.59375,0 0,13.10547 c 0,2.07031 0.40364,3.6263 1.21094,4.66796 0.80728,1.02865 2.01822,1.54298 3.63281,1.54297 1.94009,1e-5 3.47004,-0.61848 4.58985,-1.85547 1.13279,-1.23697 1.6992,-2.92317 1.69921,-5.05859 l 0,-12.40234 3.59375,0 0,21.875 -3.59375,0 0,-3.35938 c -0.87241,1.32813 -1.88803,2.31771 -3.04687,2.96875 -1.14585,0.63802 -2.48048,0.95703 -4.00391,0.95703 -2.51303,0 -4.42058,-0.78125 -5.72265,-2.34375 -1.30209,-1.56249 -1.95313,-3.84765 -1.95313,-6.85547 m 9.04297,-13.76953 0,0"
             inkscape:connector-curvature="0" />
          <path
             id="path4328-6-7-9"
             style="font-variant:normal;font-stretch:normal;font-family:Sans;-inkscape-font-specification:Sans"
             d="m 263.72266,121.952 c -2e-5,-2.64322 -0.5469,-4.71353 -1.64063,-6.21094 -1.08074,-1.5104 -2.57163,-2.26561 -4.47266,-2.26562 -1.90105,10e-6 -3.39844,0.75522 -4.49218,2.26562 -1.08074,1.49741 -1.6211,3.56772 -1.6211,6.21094 0,2.64324 0.54036,4.72006 1.6211,6.23047 1.09374,1.4974 2.59113,2.24609 4.49218,2.24609 1.90103,0 3.39192,-0.74869 4.47266,-2.24609 1.09373,-1.51041 1.64061,-3.58723 1.64063,-6.23047 m -12.22657,-7.63672 c 0.7552,-1.30206 1.70572,-2.26561 2.85157,-2.89063 1.15884,-0.63799 2.53905,-0.957 4.14062,-0.95703 2.65623,3e-5 4.81118,1.05471 6.46484,3.16407 1.66665,2.10939 2.49998,4.88282 2.5,8.32031 -2e-5,3.43751 -0.83335,6.21094 -2.5,8.32031 -1.65366,2.10938 -3.80861,3.16406 -6.46484,3.16406 -1.60157,0 -2.98178,-0.3125 -4.14062,-0.9375 -1.14585,-0.63802 -2.09637,-1.60807 -2.85157,-2.91015 l 0,3.28125 -3.61328,0 0,-30.39063 3.61328,0 0,11.83594"
             inkscape:connector-curvature="0" />
        </g>
        <g
           id="flowRoot4033-6-8-1-7"
           style="font-size:40px;font-style:normal;font-weight:normal;line-height:125%;letter-spacing:0px;word-spacing:0px;fill:#000000;fill-opacity:1;stroke:none;font-family:Sans"
           transform="matrix(0.33214997,0,0,0.33214997,-106.19666,623.63846)">
          <path
             id="path4317-8-6-8"
             style="font-variant:normal;font-stretch:normal;font-family:Sans;-inkscape-font-specification:Sans"
             d="m 215.71484,111.6395 0,3.39844 c -1.01564,-0.52082 -2.07032,-0.91144 -3.16406,-1.17188 -1.09376,-0.2604 -2.22657,-0.39061 -3.39844,-0.39062 -1.78386,10e-6 -3.125,0.27345 -4.02343,0.82031 -0.88543,0.54689 -1.32813,1.3672 -1.32813,2.46094 0,0.83334 0.31901,1.4909 0.95703,1.97265 0.63802,0.46877 1.92057,0.91798 3.84766,1.34766 l 1.23047,0.27344 c 2.55207,0.54688 4.36196,1.32162 5.42968,2.32421 1.08072,0.9896 1.62108,2.37631 1.6211,4.16016 -2e-5,2.03125 -0.80731,3.63933 -2.42188,4.82422 -1.60157,1.18489 -3.8086,1.77734 -6.62109,1.77734 -1.17188,0 -2.39584,-0.11719 -3.67188,-0.35156 -1.26302,-0.22135 -2.59765,-0.5599 -4.0039,-1.01562 l 0,-3.71094 c 1.32812,0.69011 2.63671,1.21094 3.92578,1.5625 1.28906,0.33854 2.5651,0.50781 3.82812,0.50781 1.6927,0 2.99478,-0.28646 3.90625,-0.85937 0.91145,-0.58594 1.36718,-1.40625 1.36719,-2.46094 -1e-5,-0.97656 -0.33204,-1.72526 -0.99609,-2.2461 -0.65106,-0.52082 -2.08986,-1.02212 -4.31641,-1.5039 l -1.25,-0.29297 c -2.22657,-0.46874 -3.83464,-1.18489 -4.82422,-2.14844 -0.98958,-0.97655 -1.48437,-2.31118 -1.48437,-4.0039 0,-2.05728 0.72916,-3.64582 2.1875,-4.76563 1.45833,-1.11977 3.52864,-1.67966 6.21094,-1.67969 1.32811,3e-5 2.57811,0.0977 3.75,0.29297 1.17186,0.19534 2.25258,0.4883 3.24218,0.87891"
             inkscape:connector-curvature="0" />
          <path
             id="path4319-5-1-3"
             style="font-variant:normal;font-stretch:normal;font-family:Sans;-inkscape-font-specification:Sans"
             d="m 222.25781,124.23715 0,-13.24218 3.59375,0 0,13.10547 c 0,2.07031 0.40364,3.6263 1.21094,4.66796 0.80728,1.02865 2.01822,1.54298 3.63281,1.54297 1.94009,1e-5 3.47004,-0.61848 4.58985,-1.85547 1.13279,-1.23697 1.6992,-2.92317 1.69921,-5.05859 l 0,-12.40234 3.59375,0 0,21.875 -3.59375,0 0,-3.35938 c -0.87241,1.32813 -1.88803,2.31771 -3.04687,2.96875 -1.14585,0.63802 -2.48048,0.95703 -4.00391,0.95703 -2.51303,0 -4.42058,-0.78125 -5.72265,-2.34375 -1.30209,-1.56249 -1.95313,-3.84765 -1.95313,-6.85547 m 9.04297,-13.76953 0,0"
             inkscape:connector-curvature="0" />
          <path
             id="path4321-3-5-1"
             style="font-variant:normal;font-stretch:normal;font-family:Sans;-inkscape-font-specification:Sans"
             d="m 263.72266,121.952 c -2e-5,-2.64322 -0.5469,-4.71353 -1.64063,-6.21094 -1.08074,-1.5104 -2.57163,-2.26561 -4.47266,-2.26562 -1.90105,10e-6 -3.39844,0.75522 -4.49218,2.26562 -1.08074,1.49741 -1.6211,3.56772 -1.6211,6.21094 0,2.64324 0.54036,4.72006 1.6211,6.23047 1.09374,1.4974 2.59113,2.24609 4.49218,2.24609 1.90103,0 3.39192,-0.74869 4.47266,-2.24609 1.09373,-1.51041 1.64061,-3.58723 1.64063,-6.23047 m -12.22657,-7.63672 c 0.7552,-1.30206 1.70572,-2.26561 2.85157,-2.89063 1.15884,-0.63799 2.53905,-0.957 4.14062,-0.95703 2.65623,3e-5 4.81118,1.05471 6.46484,3.16407 1.66665,2.10939 2.49998,4.88282 2.5,8.32031 -2e-5,3.43751 -0.83335,6.21094 -2.5,8.32031 -1.65366,2.10938 -3.80861,3.16406 -6.46484,3.16406 -1.60157,0 -2.98178,-0.3125 -4.14062,-0.9375 -1.14585,-0.63802 -2.09637,-1.60807 -2.85157,-2.91015 l 0,3.28125 -3.61328,0 0,-30.39063 3.61328,0 0,11.83594"
             inkscape:connector-curvature="0" />
        </g>
        <g
           id="flowRoot4033-63-4-2-6"
           style="font-size:40px;font-style:normal;font-weight:normal;line-height:125%;letter-spacing:0px;word-spacing:0px;fill:#000000;fill-opacity:1;stroke:none;font-family:Sans"
           transform="matrix(0.33214997,0,0,0.33214997,-33.12367,623.63846)">
          <path
             id="path4310-7-7-9"
             style="font-variant:normal;font-stretch:normal;font-family:Sans;-inkscape-font-specification:Sans"
             d="m 215.71484,111.6395 0,3.39844 c -1.01564,-0.52082 -2.07032,-0.91144 -3.16406,-1.17188 -1.09376,-0.2604 -2.22657,-0.39061 -3.39844,-0.39062 -1.78386,10e-6 -3.125,0.27345 -4.02343,0.82031 -0.88543,0.54689 -1.32813,1.3672 -1.32813,2.46094 0,0.83334 0.31901,1.4909 0.95703,1.97265 0.63802,0.46877 1.92057,0.91798 3.84766,1.34766 l 1.23047,0.27344 c 2.55207,0.54688 4.36196,1.32162 5.42968,2.32421 1.08072,0.9896 1.62108,2.37631 1.6211,4.16016 -2e-5,2.03125 -0.80731,3.63933 -2.42188,4.82422 -1.60157,1.18489 -3.8086,1.77734 -6.62109,1.77734 -1.17188,0 -2.39584,-0.11719 -3.67188,-0.35156 -1.26302,-0.22135 -2.59765,-0.5599 -4.0039,-1.01562 l 0,-3.71094 c 1.32812,0.69011 2.63671,1.21094 3.92578,1.5625 1.28906,0.33854 2.5651,0.50781 3.82812,0.50781 1.6927,0 2.99478,-0.28646 3.90625,-0.85937 0.91145,-0.58594 1.36718,-1.40625 1.36719,-2.46094 -1e-5,-0.97656 -0.33204,-1.72526 -0.99609,-2.2461 -0.65106,-0.52082 -2.08986,-1.02212 -4.31641,-1.5039 l -1.25,-0.29297 c -2.22657,-0.46874 -3.83464,-1.18489 -4.82422,-2.14844 -0.98958,-0.97655 -1.48437,-2.31118 -1.48437,-4.0039 0,-2.05728 0.72916,-3.64582 2.1875,-4.76563 1.45833,-1.11977 3.52864,-1.67966 6.21094,-1.67969 1.32811,3e-5 2.57811,0.0977 3.75,0.29297 1.17186,0.19534 2.25258,0.4883 3.24218,0.87891"
             inkscape:connector-curvature="0" />
          <path
             id="path4312-3-9-3"
             style="font-variant:normal;font-stretch:normal;font-family:Sans;-inkscape-font-specification:Sans"
             d="m 222.25781,124.23715 0,-13.24218 3.59375,0 0,13.10547 c 0,2.07031 0.40364,3.6263 1.21094,4.66796 0.80728,1.02865 2.01822,1.54298 3.63281,1.54297 1.94009,1e-5 3.47004,-0.61848 4.58985,-1.85547 1.13279,-1.23697 1.6992,-2.92317 1.69921,-5.05859 l 0,-12.40234 3.59375,0 0,21.875 -3.59375,0 0,-3.35938 c -0.87241,1.32813 -1.88803,2.31771 -3.04687,2.96875 -1.14585,0.63802 -2.48048,0.95703 -4.00391,0.95703 -2.51303,0 -4.42058,-0.78125 -5.72265,-2.34375 -1.30209,-1.56249 -1.95313,-3.84765 -1.95313,-6.85547 m 9.04297,-13.76953 0,0"
             inkscape:connector-curvature="0" />
          <path
             id="path4314-2-4-5"
             style="font-variant:normal;font-stretch:normal;font-family:Sans;-inkscape-font-specification:Sans"
             d="m 263.72266,121.952 c -2e-5,-2.64322 -0.5469,-4.71353 -1.64063,-6.21094 -1.08074,-1.5104 -2.57163,-2.26561 -4.47266,-2.26562 -1.90105,10e-6 -3.39844,0.75522 -4.49218,2.26562 -1.08074,1.49741 -1.6211,3.56772 -1.6211,6.21094 0,2.64324 0.54036,4.72006 1.6211,6.23047 1.09374,1.4974 2.59113,2.24609 4.49218,2.24609 1.90103,0 3.39192,-0.74869 4.47266,-2.24609 1.09373,-1.51041 1.64061,-3.58723 1.64063,-6.23047 m -12.22657,-7.63672 c 0.7552,-1.30206 1.70572,-2.26561 2.85157,-2.89063 1.15884,-0.63799 2.53905,-0.957 4.14062,-0.95703 2.65623,3e-5 4.81118,1.05471 6.46484,3.16407 1.66665,2.10939 2.49998,4.88282 2.5,8.32031 -2e-5,3.43751 -0.83335,6.21094 -2.5,8.32031 -1.65366,2.10938 -3.80861,3.16406 -6.46484,3.16406 -1.60157,0 -2.98178,-0.3125 -4.14062,-0.9375 -1.14585,-0.63802 -2.09637,-1.60807 -2.85157,-2.91015 l 0,3.28125 -3.61328,0 0,-30.39063 3.61328,0 0,11.83594"
             inkscape:connector-curvature="0" />
        </g>
        <g
           id="flowRoot4081-4-0-7"
           style="font-size:40px;font-style:normal;font-weight:normal;line-height:125%;letter-spacing:0px;word-spacing:0px;fill:#000000;fill-opacity:1;stroke:none;font-family:Sans"
           transform="matrix(0.33214997,0,0,0.33214997,-78.83451,579.78067)">
          <path
             id="path4299-3-5-2"
             d="m 221.71484,436.6395 0,3.39844 c -1.01564,-0.52082 -2.07032,-0.91144 -3.16406,-1.17188 -1.09376,-0.2604 -2.22657,-0.39061 -3.39844,-0.39062 -1.78386,1e-5 -3.125,0.27345 -4.02343,0.82031 -0.88543,0.54689 -1.32813,1.3672 -1.32813,2.46094 0,0.83334 0.31901,1.4909 0.95703,1.97265 0.63802,0.46877 1.92057,0.91798 3.84766,1.34766 l 1.23047,0.27344 c 2.55207,0.54688 4.36196,1.32162 5.42968,2.32421 1.08072,0.9896 1.62108,2.37631 1.6211,4.16016 -2e-5,2.03125 -0.80731,3.63933 -2.42188,4.82422 -1.60157,1.18489 -3.8086,1.77734 -6.62109,1.77734 -1.17188,0 -2.39584,-0.11719 -3.67188,-0.35156 -1.26302,-0.22135 -2.59765,-0.5599 -4.0039,-1.01562 l 0,-3.71094 c 1.32812,0.69011 2.63671,1.21094 3.92578,1.5625 1.28906,0.33854 2.5651,0.50781 3.82812,0.50781 1.6927,0 2.99478,-0.28646 3.90625,-0.85937 0.91145,-0.58594 1.36718,-1.40625 1.36719,-2.46094 -1e-5,-0.97656 -0.33204,-1.72526 -0.99609,-2.2461 -0.65106,-0.52082 -2.08986,-1.02212 -4.31641,-1.5039 l -1.25,-0.29297 c -2.22657,-0.46874 -3.83464,-1.18489 -4.82422,-2.14844 -0.98958,-0.97655 -1.48437,-2.31118 -1.48437,-4.0039 0,-2.05728 0.72916,-3.64582 2.1875,-4.76563 1.45833,-1.11977 3.52864,-1.67966 6.21094,-1.67969 1.32811,3e-5 2.57811,0.0977 3.75,0.29297 1.17186,0.19534 2.25258,0.4883 3.24218,0.87891"
             inkscape:connector-curvature="0" />
          <path
             id="path4301-0-4-8"
             d="m 228.25781,449.23715 0,-13.24218 3.59375,0 0,13.10547 c 0,2.07031 0.40364,3.6263 1.21094,4.66796 0.80728,1.02865 2.01822,1.54298 3.63281,1.54297 1.94009,10e-6 3.47004,-0.61848 4.58985,-1.85547 1.13279,-1.23697 1.6992,-2.92317 1.69921,-5.05859 l 0,-12.40234 3.59375,0 0,21.875 -3.59375,0 0,-3.35938 c -0.87241,1.32813 -1.88803,2.31771 -3.04687,2.96875 -1.14585,0.63802 -2.48048,0.95703 -4.00391,0.95703 -2.51303,0 -4.42058,-0.78125 -5.72265,-2.34375 -1.30209,-1.56249 -1.95313,-3.84765 -1.95313,-6.85547 m 9.04297,-13.76953 0,0"
             inkscape:connector-curvature="0" />
          <path
             id="path4303-1-8-3"
             d="m 257.49609,454.58872 0,11.60156 -3.61328,0 0,-30.19531 3.61328,0 0,3.32031 c 0.7552,-1.30206 1.70572,-2.26561 2.85157,-2.89063 1.15884,-0.63799 2.53905,-0.957 4.14062,-0.95703 2.65623,3e-5 4.81118,1.05471 6.46484,3.16407 1.66665,2.10939 2.49998,4.88282 2.5,8.32031 -2e-5,3.43751 -0.83335,6.21094 -2.5,8.32031 -1.65366,2.10938 -3.80861,3.16406 -6.46484,3.16406 -1.60157,0 -2.98178,-0.3125 -4.14062,-0.9375 -1.14585,-0.63802 -2.09637,-1.60807 -2.85157,-2.91015 m 12.22657,-7.63672 c -2e-5,-2.64322 -0.5469,-4.71353 -1.64063,-6.21094 -1.08074,-1.5104 -2.57163,-2.26561 -4.47266,-2.26562 -1.90105,1e-5 -3.39844,0.75522 -4.49218,2.26562 -1.08074,1.49741 -1.6211,3.56772 -1.6211,6.21094 0,2.64324 0.54036,4.72006 1.6211,6.23047 1.09374,1.4974 2.59113,2.24609 4.49218,2.24609 1.90103,0 3.39192,-0.74869 4.47266,-2.24609 1.09373,-1.51041 1.64061,-3.58723 1.64063,-6.23047"
             inkscape:connector-curvature="0" />
          <path
             id="path4305-1-0-5"
             d="m 298.12109,446.03403 0,1.75781 -16.52343,0 c 0.15624,2.47397 0.89843,4.36199 2.22656,5.66406 1.34114,1.28907 3.20311,1.9336 5.58594,1.9336 1.38019,0 2.71482,-0.16927 4.0039,-0.50781 1.30207,-0.33854 2.59113,-0.84636 3.86719,-1.52344 l 0,3.39844 c -1.28908,0.54687 -2.6107,0.96354 -3.96484,1.25 -1.35419,0.28645 -2.72788,0.42968 -4.1211,0.42968 -3.48959,0 -6.25652,-1.01562 -8.30078,-3.04687 -2.03125,-2.03125 -3.04688,-4.77864 -3.04687,-8.24219 -1e-5,-3.58071 0.96353,-6.41925 2.89062,-8.51562 1.9401,-2.10936 4.55077,-3.16404 7.83203,-3.16407 2.94269,3e-5 5.26691,0.95054 6.97266,2.85157 1.71873,1.88803 2.5781,4.45965 2.57812,7.71484 m -3.59375,-1.05469 c -0.0261,-1.96613 -0.57944,-3.53514 -1.66015,-4.70703 -1.06773,-1.17186 -2.487,-1.75779 -4.25782,-1.75781 -2.00521,2e-5 -3.61329,0.56642 -4.82421,1.69922 -1.19793,1.13283 -1.88803,2.72788 -2.07032,4.78515 l 12.8125,-0.0195"
             inkscape:connector-curvature="0" />
          <path
             id="path4307-3-9-3"
             d="m 316.69531,439.35434 c -0.40366,-0.23435 -0.84637,-0.40363 -1.32812,-0.50781 -0.46877,-0.11717 -0.9896,-0.17576 -1.5625,-0.17578 -2.03126,2e-5 -3.59376,0.66408 -4.6875,1.99219 -1.08074,1.31512 -1.6211,3.20964 -1.6211,5.68359 l 0,11.52344 -3.61328,0 0,-21.875 3.61328,0 0,3.39843 c 0.7552,-1.3281 1.73828,-2.31117 2.94922,-2.94921 1.21093,-0.65102 2.68228,-0.97654 4.41406,-0.97657 0.24739,3e-5 0.52082,0.0196 0.82032,0.0586 0.29946,0.0261 0.63149,0.0716 0.99609,0.13672 l 0.0195,3.6914"
             inkscape:connector-curvature="0" />
        </g>
      </g>
      <g
         transform="translate(-11.43164,549.53323)"
         style="font-size:40px;font-style:normal;font-weight:normal;line-height:125%;letter-spacing:0px;word-spacing:0px;fill:#000000;fill-opacity:1;stroke:none;font-family:Sans"
         id="flowRoot4081">
        <path
           inkscape:connector-curvature="0"
           d="m 221.71484,436.6395 0,3.39844 c -1.01564,-0.52082 -2.07032,-0.91144 -3.16406,-1.17188 -1.09376,-0.2604 -2.22657,-0.39061 -3.39844,-0.39062 -1.78386,1e-5 -3.125,0.27345 -4.02343,0.82031 -0.88543,0.54689 -1.32813,1.3672 -1.32813,2.46094 0,0.83334 0.31901,1.4909 0.95703,1.97265 0.63802,0.46877 1.92057,0.91798 3.84766,1.34766 l 1.23047,0.27344 c 2.55207,0.54688 4.36196,1.32162 5.42968,2.32421 1.08072,0.9896 1.62108,2.37631 1.6211,4.16016 -2e-5,2.03125 -0.80731,3.63933 -2.42188,4.82422 -1.60157,1.18489 -3.8086,1.77734 -6.62109,1.77734 -1.17188,0 -2.39584,-0.11719 -3.67188,-0.35156 -1.26302,-0.22135 -2.59765,-0.5599 -4.0039,-1.01562 l 0,-3.71094 c 1.32812,0.69011 2.63671,1.21094 3.92578,1.5625 1.28906,0.33854 2.5651,0.50781 3.82812,0.50781 1.6927,0 2.99478,-0.28646 3.90625,-0.85937 0.91145,-0.58594 1.36718,-1.40625 1.36719,-2.46094 -1e-5,-0.97656 -0.33204,-1.72526 -0.99609,-2.2461 -0.65106,-0.52082 -2.08986,-1.02212 -4.31641,-1.5039 l -1.25,-0.29297 c -2.22657,-0.46874 -3.83464,-1.18489 -4.82422,-2.14844 -0.98958,-0.97655 -1.48437,-2.31118 -1.48437,-4.0039 0,-2.05728 0.72916,-3.64582 2.1875,-4.76563 1.45833,-1.11977 3.52864,-1.67966 6.21094,-1.67969 1.32811,3e-5 2.57811,0.0977 3.75,0.29297 1.17186,0.19534 2.25258,0.4883 3.24218,0.87891"
           id="path4299" />
        <path
           inkscape:connector-curvature="0"
           d="m 228.25781,449.23715 0,-13.24218 3.59375,0 0,13.10547 c 0,2.07031 0.40364,3.6263 1.21094,4.66796 0.80728,1.02865 2.01822,1.54298 3.63281,1.54297 1.94009,10e-6 3.47004,-0.61848 4.58985,-1.85547 1.13279,-1.23697 1.6992,-2.92317 1.69921,-5.05859 l 0,-12.40234 3.59375,0 0,21.875 -3.59375,0 0,-3.35938 c -0.87241,1.32813 -1.88803,2.31771 -3.04687,2.96875 -1.14585,0.63802 -2.48048,0.95703 -4.00391,0.95703 -2.51303,0 -4.42058,-0.78125 -5.72265,-2.34375 -1.30209,-1.56249 -1.95313,-3.84765 -1.95313,-6.85547 m 9.04297,-13.76953 0,0"
           id="path4301" />
        <path
           inkscape:connector-curvature="0"
           d="m 257.49609,454.58872 0,11.60156 -3.61328,0 0,-30.19531 3.61328,0 0,3.32031 c 0.7552,-1.30206 1.70572,-2.26561 2.85157,-2.89063 1.15884,-0.63799 2.53905,-0.957 4.14062,-0.95703 2.65623,3e-5 4.81118,1.05471 6.46484,3.16407 1.66665,2.10939 2.49998,4.88282 2.5,8.32031 -2e-5,3.43751 -0.83335,6.21094 -2.5,8.32031 -1.65366,2.10938 -3.80861,3.16406 -6.46484,3.16406 -1.60157,0 -2.98178,-0.3125 -4.14062,-0.9375 -1.14585,-0.63802 -2.09637,-1.60807 -2.85157,-2.91015 m 12.22657,-7.63672 c -2e-5,-2.64322 -0.5469,-4.71353 -1.64063,-6.21094 -1.08074,-1.5104 -2.57163,-2.26561 -4.47266,-2.26562 -1.90105,1e-5 -3.39844,0.75522 -4.49218,2.26562 -1.08074,1.49741 -1.6211,3.56772 -1.6211,6.21094 0,2.64324 0.54036,4.72006 1.6211,6.23047 1.09374,1.4974 2.59113,2.24609 4.49218,2.24609 1.90103,0 3.39192,-0.74869 4.47266,-2.24609 1.09373,-1.51041 1.64061,-3.58723 1.64063,-6.23047"
           id="path4303" />
        <path
           inkscape:connector-curvature="0"
           d="m 298.12109,446.03403 0,1.75781 -16.52343,0 c 0.15624,2.47397 0.89843,4.36199 2.22656,5.66406 1.34114,1.28907 3.20311,1.9336 5.58594,1.9336 1.38019,0 2.71482,-0.16927 4.0039,-0.50781 1.30207,-0.33854 2.59113,-0.84636 3.86719,-1.52344 l 0,3.39844 c -1.28908,0.54687 -2.6107,0.96354 -3.96484,1.25 -1.35419,0.28645 -2.72788,0.42968 -4.1211,0.42968 -3.48959,0 -6.25652,-1.01562 -8.30078,-3.04687 -2.03125,-2.03125 -3.04688,-4.77864 -3.04687,-8.24219 -1e-5,-3.58071 0.96353,-6.41925 2.89062,-8.51562 1.9401,-2.10936 4.55077,-3.16404 7.83203,-3.16407 2.94269,3e-5 5.26691,0.95054 6.97266,2.85157 1.71873,1.88803 2.5781,4.45965 2.57812,7.71484 m -3.59375,-1.05469 c -0.0261,-1.96613 -0.57944,-3.53514 -1.66015,-4.70703 -1.06773,-1.17186 -2.487,-1.75779 -4.25782,-1.75781 -2.00521,2e-5 -3.61329,0.56642 -4.82421,1.69922 -1.19793,1.13283 -1.88803,2.72788 -2.07032,4.78515 l 12.8125,-0.0195"
           id="path4305" />
        <path
           inkscape:connector-curvature="0"
           d="m 316.69531,439.35434 c -0.40366,-0.23435 -0.84637,-0.40363 -1.32812,-0.50781 -0.46877,-0.11717 -0.9896,-0.17576 -1.5625,-0.17578 -2.03126,2e-5 -3.59376,0.66408 -4.6875,1.99219 -1.08074,1.31512 -1.6211,3.20964 -1.6211,5.68359 l 0,11.52344 -3.61328,0 0,-21.875 3.61328,0 0,3.39843 c 0.7552,-1.3281 1.73828,-2.31117 2.94922,-2.94921 1.21093,-0.65102 2.68228,-0.97654 4.41406,-0.97657 0.24739,3e-5 0.52082,0.0196 0.82032,0.0586 0.29946,0.0261 0.63149,0.0716 0.99609,0.13672 l 0.0195,3.6914"
           id="path4307" />
      </g>
    </g>
  </g>
</svg>
